<?xml version="1.0" encoding="UTF-8" standalone="no"?>
<svg width="1920px" height="400px" viewBox="0 0 1920 400" version="1.1" xmlns="http://www.w3.org/2000/svg" xmlns:xlink="http://www.w3.org/1999/xlink" xmlns:sketch="http://www.bohemiancoding.com/sketch/ns">
    <!-- Generator: Sketch 3.3.3 (12081) - http://www.bohemiancoding.com/sketch -->
    <title>Artboard 1</title>
    <desc>Created with Sketch.</desc>
    <defs></defs>
    <g id="Page-1" stroke="none" stroke-width="1" fill="none" fill-rule="evenodd" sketch:type="MSPage">
        <g id="Artboard-1" sketch:type="MSArtboardGroup">
            <path d="M33.5000262,291.342622 C33.5000261,291.342622 228.500037,110.342638 329.500027,110.342638 C387.068226,110.342638 474.119701,184.106867 548.500026,203.342636 C604.61557,217.854883 739.659064,80.5945405 827.500026,83.3426377 C927.240512,86.4630104 1077.50003,235.342633 1168.50003,235.342633 C1259.50003,235.342633 1379.71304,52.0376992 1449.50003,61.3426339 C1539.50003,73.3426377 1607.09394,192.695642 1755.50003,203.342638 C1811.70433,207.374864 1885.20469,135.990792 1945.50003,110.342638 C2044.41306,68.2674655 2120.49997,61.3426357 2120.49997,61.3426357 L2120.49997,360.342636 L200.500027,360.342636 C200.500027,360.342636 33.5000263,291.342622 33.5000262,291.342622 Z" id="Hills-(Background)" fill="#F7F7F7" sketch:type="MSShapeGroup"></path>
            <path d="M-164.499974,380.999987 C-164.499974,380.999987 -12.4999644,151 88.5000262,151 C146.068225,151 163.119701,180.764233 237.500026,200.000002 C267.982384,207.883156 339.063753,328.776772 407.500026,312.999996 C465.049372,299.733009 567.500026,151 601.500026,151 C635.500026,151 717.500026,287 808.500026,287 C856.996551,287 973.769352,324.642154 1086.50003,300.5 C1185.29979,279.341259 1312.50003,200.000004 1345.50003,200.000004 C1378.50003,200.000004 1464.09394,276.353004 1612.50003,287 C1668.70433,291.032226 1742.20469,225.648156 1802.50003,200.000002 C1901.41306,157.92483 1922.50003,184 1922.50003,184 L1922.49997,450 L2.50002718,450 C2.50002718,450 -164.499974,380.999987 -164.499974,380.999987 Z" id="Hills-(Foreground)" fill="#EEEEEE" sketch:type="MSShapeGroup"></path>
            <path d="M33.5000262,383 L1952.50003,383 L1952.50003,239 L1913.50003,266 C1913.50003,266 1819.50003,210 1809.50003,210 C1799.50003,210 1669.50003,257 1669.50003,257 C1669.50003,257 1605.50003,217 1595.50003,213 C1585.50003,209 1479.50003,200 1479.50003,200 L1366.50003,329 C1366.50003,329 1274.50003,226 1264.50003,226 C1254.50003,226 1151.50003,285 1151.50003,285 C1151.50003,285 976.500026,72 963.500026,72 C950.500026,72 907.500026,329 907.500026,329 C907.500026,329 816.500026,156 806.500026,156 C796.500026,156 657.500026,266 657.500026,266 L514.500026,175 L446.500026,247 C446.500026,247 380.999996,139 370.999996,139 C360.999996,139 242.500026,239 242.500026,239 C242.500026,239 173.500026,175 163.500026,175 C153.500026,175 32.5000262,276 32.5000262,276 L33.5000262,383 Z" id="Mountains-(Back)" fill="#2E3B41" sketch:type="MSShapeGroup"></path>
            <path d="M-10,400 L1930,400 L1930,256 L1890.59375,283 C1890.59375,283 1780.45833,203 1770.35417,203 C1760.25,203 1644.05208,274 1644.05208,274 C1644.05208,274 1504.61458,140 1494.51042,140 C1484.40625,140 1337.89583,346 1337.89583,346 C1337.89583,346 1231.80208,195 1221.69792,195 C1211.59375,195 1120.65625,302 1120.65625,302 C1120.65625,302 972.125,70 962.020833,70 C951.916667,70 829.65625,233 829.65625,233 C829.65625,233 769.03125,146 758.927083,146 C748.822917,146 621.510417,283 621.510417,283 C621.510417,283 514.40625,160 504.302083,160 C494.197917,160 422.458333,233 422.458333,233 C422.458333,233 330.510417,102 320.40625,102 C310.302083,102 202.1875,256 202.1875,256 C202.1875,256 131.458333,183 121.354167,183 C111.25,183 -10,293 -10,293 L-10,400 Z" id="Mountains-(Front)" fill="#576970" sketch:type="MSShapeGroup"></path>
        </g>
    </g>
</svg>