<?xml version="1.0" encoding="UTF-8" standalone="no"?>
<svg width="1001px" height="252px" viewBox="0 0 1001 252" version="1.1" xmlns="http://www.w3.org/2000/svg" xmlns:xlink="http://www.w3.org/1999/xlink" xmlns:sketch="http://www.bohemiancoding.com/sketch/ns">
    <!-- Generator: Sketch 3.3.2 (12043) - http://www.bohemiancoding.com/sketch -->
    <title>Logo</title>
    <desc>Created with Sketch.</desc>
    <defs></defs>
    <g id="Vidyard---White" stroke="none" stroke-width="1" fill="none" fill-rule="evenodd" sketch:type="MSPage">
        <g id="Colour" sketch:type="MSArtboardGroup" transform="translate(-199.000000, -574.000000)">
            <g id="Logo" sketch:type="MSLayerGroup" transform="translate(199.500000, 573.500000)">
                <g id="Underline" transform="translate(12.834320, 214.017751)" fill="#6D6F71" sketch:type="MSShapeGroup">
                    <path d="M972.236686,17.5739645 L985.218935,17.5739645 C986.301775,17.5739645 987.159763,16.7100592 987.159763,15.6331361 L987.159763,2.63905325 C987.159763,1.56804734 986.301775,0.710059172 985.218935,0.710059172 L972.236686,0.710059172 C971.159763,0.710059172 970.289941,1.56804734 970.289941,2.63905325 L970.289941,15.6331361 C970.289941,16.7100592 971.159763,17.5739645 972.236686,17.5739645" id="24"></path>
                    <path d="M931.887574,34.3609467 L931.91716,34.3668639 L931.95858,34.3609467 L944.91716,34.3609467 L944.964497,34.3668639 L945.017751,34.3609467 C945.988166,34.3372781 946.745562,33.6035503 946.863905,32.6508876 C946.869822,32.5680473 946.893491,32.5088757 946.893491,32.443787 C946.893491,32.3727811 946.869822,32.3136095 946.863905,32.2485207 L946.863905,2.69822485 C946.869822,2.66272189 946.87574,2.63905325 946.87574,2.59763314 C946.87574,2.56804734 946.869822,2.55029586 946.863905,2.50887574 C946.810651,1.53254438 946.04142,0.775147929 945.059172,0.710059172 C945.035503,0.698224852 945,0.680473373 944.940828,0.680473373 C944.899408,0.680473373 944.881657,0.698224852 944.881657,0.698224852 L931.940828,0.710059172 L931.91716,0.698224852 L931.91716,0.710059172 C930.863905,0.710059172 930.047337,1.53254438 930.005917,2.56213018 C930.005917,2.59171598 929.988166,2.59763314 929.988166,2.61538462 C929.988166,2.65088757 930.005917,2.66272189 930.005917,2.69822485 L930.005917,32.3727811 C930.005917,32.4023669 929.988166,32.4142012 929.988166,32.443787 C929.988166,32.4556213 930.005917,32.4792899 930.005917,32.5088757 C930.047337,33.5325444 930.852071,34.3372781 931.887574,34.3609467" id="23"></path>
                    <path d="M891.798817,17.5739645 L904.786982,17.5739645 C905.869822,17.5739645 906.727811,16.7100592 906.727811,15.6331361 L906.727811,2.63905325 C906.727811,1.56804734 905.869822,0.710059172 904.786982,0.710059172 L891.798817,0.710059172 C890.721893,0.710059172 889.857988,1.56804734 889.857988,2.63905325 L889.857988,15.6331361 C889.857988,16.7100592 890.721893,17.5739645 891.798817,17.5739645" id="22"></path>
                    <path d="M850.881657,17.5739645 L863.887574,17.5739645 C864.970414,17.5739645 865.810651,16.7100592 865.810651,15.6331361 L865.810651,2.63905325 C865.810651,1.56804734 864.970414,0.710059172 863.887574,0.710059172 L850.881657,0.710059172 C849.816568,0.710059172 848.95858,1.56804734 848.95858,2.63905325 L848.95858,15.6331361 C848.95858,16.7100592 849.816568,17.5739645 850.881657,17.5739645" id="21"></path>
                    <path d="M823.940828,0.710059172 L810.923077,0.710059172 C809.87574,0.710059172 809.011834,1.56804734 809.011834,2.63905325 L809.011834,15.6331361 C809.011834,16.7100592 809.87574,17.5739645 810.923077,17.5739645 L823.940828,17.5739645 C825,17.5739645 825.863905,16.7100592 825.863905,15.6331361 L825.863905,2.63905325 C825.863905,1.56804734 825,0.710059172 823.940828,0.710059172" id="20"></path>
                    <path d="M770.573964,17.5739645 L783.591716,17.5739645 C784.650888,17.5739645 785.52071,16.7100592 785.52071,15.6331361 L785.52071,2.63905325 C785.52071,1.56804734 784.650888,0.710059172 783.591716,0.710059172 L770.573964,0.710059172 C769.508876,0.710059172 768.656805,1.56804734 768.656805,2.63905325 L768.656805,15.6331361 C768.656805,16.7100592 769.508876,17.5739645 770.573964,17.5739645" id="19"></path>
                    <path d="M729.840237,34.3668639 C729.881657,34.3668639 729.893491,34.3609467 729.893491,34.3609467 L742.846154,34.3609467 C742.846154,34.3609467 742.87574,34.3668639 742.899408,34.3668639 C742.899408,34.3668639 742.928994,34.3609467 742.946746,34.3609467 C743.923077,34.3372781 744.680473,33.6035503 744.769231,32.6508876 C744.798817,32.5680473 744.816568,32.5088757 744.816568,32.443787 C744.816568,32.3727811 744.798817,32.3136095 744.769231,32.2485207 L744.769231,2.69822485 C744.769231,2.66272189 744.798817,2.63905325 744.798817,2.59763314 C744.798817,2.56804734 744.769231,2.55029586 744.769231,2.50887574 C744.745562,1.53254438 743.964497,0.775147929 743.005917,0.710059172 C742.95858,0.710059172 742.905325,0.680473373 742.87574,0.680473373 C742.87574,0.680473373 742.775148,0.710059172 742.739645,0.710059172 L729.840237,0.710059172 C728.810651,0.710059172 727.976331,1.53254438 727.928994,2.56213018 C727.928994,2.59171598 727.923077,2.59763314 727.923077,2.63905325 C727.923077,2.65088757 727.928994,2.66272189 727.928994,2.69822485 L727.928994,32.3727811 C727.928994,32.4023669 727.923077,32.4142012 727.923077,32.443787 C727.923077,32.4556213 727.928994,32.4792899 727.928994,32.5088757 C727.976331,33.5325444 728.792899,34.3372781 729.804734,34.3609467 L729.840237,34.3668639" id="18"></path>
                    <path d="M689.236686,17.5739645 L702.254438,17.5739645 C703.319527,17.5739645 704.189349,16.7100592 704.189349,15.6331361 L704.189349,2.63905325 C704.189349,1.56804734 703.319527,0.710059172 702.254438,0.710059172 L689.236686,0.710059172 C688.189349,0.710059172 687.313609,1.56804734 687.313609,2.63905325 L687.313609,15.6331361 C687.313609,16.7100592 688.189349,17.5739645 689.236686,17.5739645" id="17"></path>
                    <path d="M649.059172,17.5739645 L662.053254,17.5739645 C663.12426,17.5739645 663.976331,16.7100592 663.976331,15.6331361 L663.976331,2.63905325 C663.976331,1.56804734 663.12426,0.710059172 662.053254,0.710059172 L649.059172,0.710059172 C648,0.710059172 647.118343,1.56804734 647.118343,2.63905325 L647.118343,15.6331361 C647.118343,16.7100592 648,17.5739645 649.059172,17.5739645" id="16"></path>
                    <path d="M608.857988,17.5739645 L621.857988,17.5739645 C622.923077,17.5739645 623.781065,16.7100592 623.781065,15.6331361 L623.781065,2.63905325 C623.781065,1.56804734 622.923077,0.710059172 621.857988,0.710059172 L608.857988,0.710059172 C607.781065,0.710059172 606.928994,1.56804734 606.928994,2.63905325 L606.928994,15.6331361 C606.928994,16.7100592 607.781065,17.5739645 608.857988,17.5739645" id="15"></path>
                    <path d="M580.710059,17.5739645 C581.786982,17.5739645 582.662722,16.7100592 582.662722,15.6331361 L582.662722,2.63905325 C582.662722,1.56804734 581.786982,0.710059172 580.710059,0.710059172 L567.715976,0.710059172 C566.64497,0.710059172 565.775148,1.56804734 565.775148,2.63905325 L565.775148,15.6331361 C565.775148,16.7100592 566.64497,17.5739645 567.715976,17.5739645 L580.710059,17.5739645" id="14"></path>
                    <path d="M527.639053,34.3609467 L527.692308,34.3668639 L527.727811,34.3609467 L540.692308,34.3609467 L540.727811,34.3668639 L540.786982,34.3609467 C541.757396,34.3372781 542.532544,33.6035503 542.621302,32.6508876 C542.639053,32.5680473 542.668639,32.5088757 542.668639,32.443787 C542.668639,32.3727811 542.639053,32.3136095 542.621302,32.2485207 L542.621302,2.69822485 C542.621302,2.66272189 542.639053,2.63905325 542.639053,2.59763314 C542.639053,2.56804734 542.621302,2.55029586 542.621302,2.50887574 C542.585799,1.53254438 541.816568,0.775147929 540.846154,0.710059172 C540.792899,0.698224852 540.757396,0.680473373 540.704142,0.680473373 C540.704142,0.680473373 540.656805,0.698224852 540.591716,0.710059172 L527.710059,0.710059172 L527.692308,0.698224852 L527.692308,0.710059172 C526.633136,0.710059172 525.804734,1.53254438 525.769231,2.56213018 C525.769231,2.59171598 525.751479,2.59763314 525.751479,2.61538462 C525.751479,2.65088757 525.769231,2.66272189 525.769231,2.69822485 L525.769231,32.3727811 C525.769231,32.4023669 525.751479,32.4142012 525.751479,32.443787 C525.751479,32.4556213 525.769231,32.4792899 525.769231,32.5088757 C525.804734,33.5325444 526.609467,34.3372781 527.639053,34.3609467" id="13"></path>
                    <path d="M487.56213,17.5739645 L500.568047,17.5739645 C501.621302,17.5739645 502.497041,16.7100592 502.497041,15.6331361 L502.497041,2.63905325 C502.497041,1.56804734 501.621302,0.710059172 500.568047,0.710059172 L487.56213,0.710059172 C486.497041,0.710059172 485.627219,1.56804734 485.627219,2.63905325 L485.627219,15.6331361 C485.627219,16.7100592 486.497041,17.5739645 487.56213,17.5739645" id="12"></path>
                    <path d="M419.704142,0.710059172 L406.692308,0.710059172 C405.633136,0.710059172 404.769231,1.56804734 404.769231,2.63905325 L404.769231,15.6331361 C404.769231,16.7100592 405.633136,17.5739645 406.692308,17.5739645 L419.704142,17.5739645 C420.781065,17.5739645 421.627219,16.7100592 421.627219,15.6331361 L421.627219,2.63905325 C421.627219,1.56804734 420.781065,0.710059172 419.704142,0.710059172" id="11"></path>
                    <path d="M366.715976,17.5739645 L379.704142,17.5739645 C380.781065,17.5739645 381.621302,16.7100592 381.621302,15.6331361 L381.621302,2.63905325 C381.621302,1.56804734 380.781065,0.710059172 379.704142,0.710059172 L366.715976,0.710059172 C365.627219,0.710059172 364.781065,1.56804734 364.781065,2.63905325 L364.781065,15.6331361 C364.781065,16.7100592 365.627219,17.5739645 366.715976,17.5739645" id="10"></path>
                    <path d="M325.970414,34.3668639 L326,34.3609467 L338.982249,34.3609467 C338.982249,34.3609467 338.982249,34.3668639 339.005917,34.3668639 C339.005917,34.3668639 339.035503,34.3609467 339.065089,34.3609467 C340.04142,34.3372781 340.804734,33.6035503 340.905325,32.6508876 C340.905325,32.5680473 340.946746,32.5088757 340.946746,32.443787 C340.946746,32.3727811 340.905325,32.3136095 340.905325,32.2485207 L340.905325,2.69822485 C340.905325,2.66272189 340.911243,2.63905325 340.911243,2.59763314 C340.911243,2.56804734 340.905325,2.55029586 340.905325,2.50887574 C340.852071,1.53254438 340.100592,0.775147929 339.130178,0.710059172 C339.08284,0.710059172 339.023669,0.680473373 338.982249,0.680473373 L338.87574,0.710059172 L325.970414,0.710059172 C324.911243,0.710059172 324.076923,1.53254438 324.059172,2.56213018 C324.059172,2.59171598 324.035503,2.59763314 324.035503,2.63905325 C324.035503,2.65088757 324.059172,2.66272189 324.059172,2.69822485 L324.059172,32.3727811 C324.059172,32.4023669 324.035503,32.4142012 324.035503,32.443787 C324.035503,32.4556213 324.059172,32.4792899 324.059172,32.5088757 C324.076923,33.5325444 324.887574,34.3372781 325.928994,34.3609467 L325.970414,34.3668639" id="9"></path>
                    <path d="M285.366864,17.5739645 L298.366864,17.5739645 C299.43787,17.5739645 300.307692,16.7100592 300.307692,15.6331361 L300.307692,2.63905325 C300.307692,1.56804734 299.43787,0.710059172 298.366864,0.710059172 L285.366864,0.710059172 C284.301775,0.710059172 283.431953,1.56804734 283.431953,2.63905325 L283.431953,15.6331361 C283.431953,16.7100592 284.301775,17.5739645 285.366864,17.5739645" id="8"></path>
                    <path d="M245.171598,17.5739645 L258.177515,17.5739645 C259.254438,17.5739645 260.106509,16.7100592 260.106509,15.6331361 L260.106509,2.63905325 C260.106509,1.56804734 259.254438,0.710059172 258.177515,0.710059172 L245.171598,0.710059172 C244.106509,0.710059172 243.224852,1.56804734 243.224852,2.63905325 L243.224852,15.6331361 C243.224852,16.7100592 244.106509,17.5739645 245.171598,17.5739645" id="7"></path>
                    <path d="M204.970414,17.5739645 L217.976331,17.5739645 C219.047337,17.5739645 219.911243,16.7100592 219.911243,15.6331361 L219.911243,2.63905325 C219.911243,1.56804734 219.047337,0.710059172 217.976331,0.710059172 L204.970414,0.710059172 C203.905325,0.710059172 203.053254,1.56804734 203.053254,2.63905325 L203.053254,15.6331361 C203.053254,16.7100592 203.905325,17.5739645 204.970414,17.5739645" id="6"></path>
                    <path d="M176.828402,17.5739645 C177.893491,17.5739645 178.745562,16.7100592 178.745562,15.6331361 L178.745562,2.63905325 C178.745562,1.56804734 177.893491,0.710059172 176.828402,0.710059172 L163.840237,0.710059172 C162.769231,0.710059172 161.911243,1.56804734 161.911243,2.63905325 L161.911243,15.6331361 C161.911243,16.7100592 162.769231,17.5739645 163.840237,17.5739645 L176.828402,17.5739645" id="5"></path>
                    <path d="M123.775148,34.3609467 L123.804734,34.3668639 L123.863905,34.3609467 L136.816568,34.3609467 L136.857988,34.3668639 C136.857988,34.3668639 136.893491,34.3609467 136.91716,34.3609467 C137.87574,34.3372781 138.64497,33.6035503 138.745562,32.6508876 C138.757396,32.5680473 138.792899,32.5088757 138.792899,32.443787 C138.792899,32.3727811 138.757396,32.3136095 138.745562,32.2485207 L138.745562,2.69822485 C138.745562,2.66272189 138.757396,2.63905325 138.757396,2.59763314 C138.757396,2.56804734 138.745562,2.55029586 138.745562,2.50887574 C138.704142,1.53254438 137.934911,0.775147929 136.940828,0.710059172 C136.923077,0.698224852 136.87574,0.680473373 136.83432,0.680473373 C136.83432,0.680473373 136.751479,0.698224852 136.698225,0.710059172 L123.822485,0.710059172 L123.804734,0.698224852 L123.804734,0.710059172 C122.763314,0.710059172 121.934911,1.53254438 121.905325,2.56213018 C121.905325,2.59171598 121.881657,2.59763314 121.881657,2.61538462 C121.881657,2.65088757 121.905325,2.66272189 121.905325,2.69822485 L121.905325,32.3727811 C121.905325,32.4023669 121.881657,32.4142012 121.881657,32.443787 C121.881657,32.4556213 121.905325,32.4792899 121.905325,32.5088757 C121.934911,33.5325444 122.751479,34.3372781 123.775148,34.3609467" id="4"></path>
                    <path d="M83.6804734,17.5739645 L96.6923077,17.5739645 C97.7514793,17.5739645 98.6153846,16.7100592 98.6153846,15.6331361 L98.6153846,2.63905325 C98.6153846,1.56804734 97.7514793,0.710059172 96.6923077,0.710059172 L83.6804734,0.710059172 C82.6213018,0.710059172 81.7633136,1.56804734 81.7633136,2.63905325 L81.7633136,15.6331361 C81.7633136,16.7100592 82.6213018,17.5739645 83.6804734,17.5739645" id="3"></path>
                    <path d="M42.7751479,17.5739645 L55.7692308,17.5739645 C56.8343195,17.5739645 57.6982249,16.7100592 57.6982249,15.6331361 L57.6982249,2.63905325 C57.6982249,1.56804734 56.8343195,0.710059172 55.7692308,0.710059172 L42.7751479,0.710059172 C41.704142,0.710059172 40.8284024,1.56804734 40.8284024,2.63905325 L40.8284024,15.6331361 C40.8284024,16.7100592 41.704142,17.5739645 42.7751479,17.5739645" id="2"></path>
                    <path d="M15.816568,0.710059172 L2.82248521,0.710059172 C1.75739645,0.710059172 0.887573964,1.56804734 0.887573964,2.63905325 L0.887573964,15.6331361 C0.887573964,16.7100592 1.75739645,17.5739645 2.82248521,17.5739645 L15.816568,17.5739645 C16.8816568,17.5739645 17.7514793,16.7100592 17.7514793,15.6331361 L17.7514793,2.63905325 C17.7514793,1.56804734 16.8816568,0.710059172 15.816568,0.710059172" id="1"></path>
                </g>
                <g id="Text" sketch:type="MSShapeGroup">
                    <path d="M976.035503,123.769231 C975.639053,115.804734 973.940828,108.455621 970.988166,101.733728 C968.029586,94.9940828 964.118343,89.1656805 959.195266,84.2544379 C954.289941,79.3609467 948.568047,75.5384615 942.04142,72.7633136 C935.47929,70.0236686 928.556213,68.6508876 921.213018,68.6508876 C913.656805,68.6508876 906.508876,70.0710059 899.763314,72.9349112 C893.029586,75.7988166 887.153846,79.7159763 882.142012,84.7159763 C877.118343,89.7218935 873.218935,95.591716 870.337278,102.337278 C867.473373,109.065089 866.059172,116.224852 866.059172,123.769231 C866.059172,131.343195 867.473373,138.43787 870.337278,145.076923 C873.218935,151.710059 877.118343,157.538462 882.142012,162.526627 C887.153846,167.52071 893.029586,171.461538 899.763314,174.337278 C906.508876,177.201183 913.656805,178.609467 921.213018,178.609467 C928.745562,178.609467 935.828402,177.201183 942.491124,174.337278 C949.136095,171.461538 954.95858,167.52071 959.964497,162.526627 C964.964497,157.538462 968.893491,151.710059 971.763314,145.076923 C974.615385,138.43787 976.035503,131.343195 976.035503,123.769231 M920.585799,49.3491124 C932.035503,49.7337278 942.443787,52.6686391 951.852071,58.0532544 C961.236686,63.4733728 969.307692,69.8698225 976.035503,77.2248521 L976.035503,10.443787 C976.035503,7.78106509 976.95858,5.53846154 978.786982,3.68047337 C980.633136,1.84615385 982.87574,0.934911243 985.550296,0.934911243 C988.183432,0.934911243 990.449704,1.84615385 992.272189,3.68047337 C994.112426,5.53846154 995.029586,7.78106509 995.029586,10.443787 L995.029586,123.769231 C995.029586,134.39645 993.094675,144.201183 989.230769,153.201183 C985.343195,162.159763 980.017751,169.946746 973.295858,176.473373 C966.556213,183.011834 958.692308,188.12426 949.692308,191.781065 C940.715976,195.467456 931.218935,197.313609 921.213018,197.313609 C910.798817,197.313609 901.076923,195.360947 892.12426,191.47929 C883.106509,187.615385 875.301775,182.284024 868.662722,175.568047 C862.04142,168.816568 856.763314,161 852.887574,152.106509 C849,143.224852 847.071006,133.786982 847.071006,123.769231 C847.071006,113.568047 849.076923,103.982249 853.047337,94.9940828 C857.023669,86.0059172 862.39645,78.1242604 869.130178,71.3846154 C875.863905,64.6686391 883.674556,59.2840237 892.556213,55.3136095 C901.443787,51.3372781 910.798817,49.3491124 920.585799,49.3491124" id="d" fill="#70AE44"></path>
                    <path d="M752.408284,122.248521 C752.408284,112.254438 754.307692,102.792899 758.065089,93.9171598 C761.852071,85.0236686 767.059172,77.2248521 773.698225,70.4674556 C780.337278,63.739645 788.065089,58.4378698 796.83432,54.5443787 C805.615385,50.6686391 815.017751,48.6331361 825.017751,48.4260355 C828.278107,48.4260355 830.905325,49.3491124 832.840237,51.183432 C834.769231,53.0236686 835.739645,55.2662722 835.739645,57.9112426 C835.739645,60.5621302 834.769231,62.8224852 832.840237,64.6686391 C830.905325,66.5029586 828.278107,67.408284 825.017751,67.408284 C817.674556,67.6213018 810.721893,69.1893491 804.177515,72.1597633 C797.656805,75.112426 791.923077,79.0532544 787.023669,83.9585799 C782.12426,88.8698225 778.295858,94.6272189 775.526627,101.278107 C772.781065,107.905325 771.390533,114.893491 771.390533,122.248521 L771.390533,187.810651 C771.390533,190.473373 770.47929,192.721893 768.656805,194.550296 C766.810651,196.384615 764.56213,197.313609 761.905325,197.313609 C759.242604,197.313609 756.994083,196.384615 755.189349,194.550296 C753.307692,192.721893 752.408284,190.473373 752.408284,187.810651 L752.408284,122.248521" id="r" fill="#70AE44"></path>
                    <path d="M587.609467,123.147929 C587.609467,130.715976 589.023669,137.828402 591.887574,144.443787 C594.745562,151.100592 598.656805,156.911243 603.674556,161.905325 C608.686391,166.911243 614.497041,170.863905 621.147929,173.704142 C627.781065,176.579882 634.869822,178.011834 642.43787,178.011834 C649.786982,178.011834 656.721893,176.627219 663.260355,173.857988 C669.804734,171.100592 675.573964,167.272189 680.56213,162.360947 C685.568047,157.485207 689.538462,151.710059 692.526627,145.076923 C695.473373,138.43787 697.153846,131.147929 697.585799,123.147929 C697.585799,115.609467 696.142012,108.47929 693.295858,101.733728 C690.431953,94.9940828 686.491124,89.1301775 681.502959,84.1183432 C676.467456,79.112426 670.615385,75.1893491 663.863905,72.3254438 C657.153846,69.443787 649.982249,68.0414201 642.43787,68.0414201 C634.869822,68.0414201 627.781065,69.443787 621.147929,72.3254438 C614.497041,75.1893491 608.686391,79.112426 603.674556,84.1183432 C598.656805,89.1301775 594.745562,94.9940828 591.887574,101.733728 C589.023669,108.47929 587.609467,115.609467 587.609467,123.147929 M643.029586,48.7337278 C652.846154,48.7337278 662.189349,50.7218935 671.065089,54.6982249 C679.970414,58.6745562 687.757396,64.0473373 694.514793,70.7692308 C701.248521,77.5147929 706.615385,85.3846154 710.597633,94.3727811 C714.585799,103.366864 716.556213,112.952663 716.556213,123.147929 L716.556213,187.810651 C716.556213,190.473373 715.656805,192.721893 713.810651,194.544379 C711.964497,196.384615 709.710059,197.313609 707.094675,197.313609 C704.408284,197.313609 702.189349,196.384615 700.337278,194.544379 C698.508876,192.721893 697.585799,190.473373 697.585799,187.810651 L697.585799,169.118343 C690.840237,176.692308 682.715976,183.171598 673.224852,188.579882 C663.715976,193.988166 653.455621,196.692308 642.43787,196.692308 C632.218935,196.692308 622.668639,194.869822 613.781065,191.177515 C604.91716,187.491124 597.100592,182.414201 590.349112,175.869822 C583.615385,169.331361 578.295858,161.56213 574.414201,152.585799 C570.544379,143.591716 568.591716,133.786982 568.591716,123.147929 C568.591716,112.952663 570.491124,103.414201 574.266272,94.5325444 C578.029586,85.6508876 583.260355,77.8757396 589.881657,71.2544379 C596.538462,64.6153846 604.402367,59.295858 613.491124,55.3136095 C622.56213,51.3372781 632.426036,49.1301775 643.029586,48.7337278" id="a" fill="#70AE44"></path>
                    <path d="M394.597633,58.2011834 C394.597633,55.5502959 395.514793,53.3136095 397.35503,51.4497041 C399.207101,49.6272189 401.43787,48.7218935 404.106509,48.7218935 C406.751479,48.7218935 409,49.6272189 410.840237,51.4497041 C412.656805,53.3136095 413.597633,55.5502959 413.597633,58.2011834 L413.597633,126.83432 C413.597633,133.970414 414.982249,140.668639 417.733728,146.887574 C420.491124,153.118343 424.207101,158.538462 428.91716,163.136095 C433.615385,167.727811 439.071006,171.360947 445.295858,174 C451.538462,176.674556 458.213018,177.982249 465.366864,177.982249 C472.52071,177.982249 479.201183,176.674556 485.455621,174 C491.668639,171.360947 497.118343,167.727811 501.798817,163.136095 C506.526627,158.538462 510.195266,153.118343 512.857988,146.887574 C515.502959,140.668639 516.840237,133.970414 516.840237,126.83432 L516.840237,57.8934911 C516.840237,55.2544379 517.751479,53.0059172 519.597633,51.1420118 C521.431953,49.3313609 523.692308,48.4142012 526.325444,48.4142012 C528.988166,48.4142012 531.230769,49.3313609 533.076923,51.1420118 C534.911243,53.0059172 535.828402,55.2544379 535.828402,57.8934911 L535.828402,126.83432 C535.828402,135.822485 534.284024,144.278107 531.230769,152.248521 C528.171598,160.224852 523.893491,167.307692 518.360947,173.550296 C512.857988,179.775148 506.372781,184.887574 498.91716,188.863905 C491.461538,192.869822 483.443787,195.449704 474.857988,196.680473 L474.857988,242.940828 C474.857988,245.591716 473.940828,247.840237 472.106509,249.674556 C470.254438,251.508876 468.017751,252.43787 465.366864,252.43787 C462.710059,252.43787 460.467456,251.508876 458.621302,249.674556 C456.786982,247.840237 455.857988,245.591716 455.857988,242.940828 L455.857988,196.982249 C447.088757,195.769231 438.964497,193.147929 431.502959,189.171598 C424.065089,185.195266 417.579882,180.088757 412.071006,173.857988 C406.550296,167.621302 402.266272,160.497041 399.207101,152.402367 C396.12426,144.343195 394.597633,135.822485 394.597633,126.83432 L394.597633,58.2011834" id="y" fill="#70AE44"></path>
                    <path d="M331.923077,123.769231 C331.497041,115.816568 329.810651,108.47929 326.863905,101.733728 C323.899408,94.9940828 319.988166,89.1656805 315.076923,84.2544379 C310.171598,79.3668639 304.443787,75.5384615 297.911243,72.7633136 C291.378698,70.0059172 284.43787,68.6508876 277.08284,68.6508876 C269.538462,68.6508876 262.378698,70.0710059 255.64497,72.9349112 C248.893491,75.7988166 243.047337,79.7159763 238.017751,84.7159763 C233.023669,89.7218935 229.071006,95.591716 226.230769,102.337278 C223.360947,109.065089 221.946746,116.224852 221.946746,123.769231 C221.946746,131.343195 223.360947,138.43787 226.230769,145.076923 C229.071006,151.710059 233.023669,157.538462 238.017751,162.544379 C243.047337,167.538462 248.893491,171.461538 255.64497,174.337278 C262.378698,177.201183 269.538462,178.609467 277.08284,178.609467 C284.64497,178.609467 291.727811,177.201183 298.360947,174.337278 C304.994083,171.461538 310.83432,167.538462 315.840237,162.544379 C320.846154,157.538462 324.781065,151.710059 327.621302,145.076923 C330.497041,138.43787 331.923077,131.343195 331.923077,123.769231 M276.473373,49.3491124 C287.911243,49.7337278 298.313609,52.6686391 307.721893,58.0532544 C317.094675,63.4733728 325.189349,69.8698225 331.923077,77.2248521 L331.923077,10.443787 C331.923077,7.78106509 332.828402,5.53846154 334.686391,3.68047337 C336.52071,1.84615385 338.763314,0.934911243 341.408284,0.934911243 C344.076923,0.934911243 346.331361,1.84615385 348.171598,3.68047337 C349.982249,5.53846154 350.923077,7.78106509 350.923077,10.443787 L350.923077,123.769231 C350.923077,134.39645 348.976331,144.201183 345.088757,153.201183 C341.201183,162.159763 335.911243,169.946746 329.171598,176.473373 C322.414201,183.011834 314.573964,188.12426 305.573964,191.781065 C296.579882,195.467456 287.08284,197.313609 277.08284,197.313609 C266.656805,197.313609 256.982249,195.360947 247.988166,191.47929 C238.976331,187.615385 231.171598,182.284024 224.538462,175.568047 C217.905325,168.816568 212.64497,161 208.769231,152.106509 C204.87574,143.224852 202.964497,133.786982 202.964497,123.769231 C202.964497,113.568047 204.934911,103.982249 208.928994,94.9940828 C212.887574,86.0059172 218.284024,78.1242604 225.005917,71.3846154 C231.739645,64.6686391 239.556213,59.295858 248.431953,55.3136095 C257.331361,51.3372781 266.656805,49.3491124 276.473373,49.3491124" id="d" fill="#6D6F71"></path>
                    <path d="M151.775148,57.9112426 C151.775148,55.2662722 152.710059,53.0236686 154.538462,51.1715976 C156.39645,49.3491124 158.627219,48.4142012 161.289941,48.4142012 C163.934911,48.4142012 166.189349,49.3491124 168.035503,51.1715976 C169.852071,53.0236686 170.781065,55.2662722 170.781065,57.9112426 L170.781065,187.810651 C170.781065,190.473373 169.852071,192.721893 168.035503,194.550296 C166.189349,196.384615 163.934911,197.313609 161.289941,197.313609 C158.627219,197.313609 156.39645,196.384615 154.538462,194.550296 C152.710059,192.721893 151.775148,190.473373 151.775148,187.810651 L151.775148,57.9112426 L151.775148,57.9112426 Z M148.727811,15.6331361 C148.727811,12.1715976 149.964497,9.21301775 152.414201,6.75147929 C154.863905,4.29585799 157.822485,3.0887574 161.289941,3.0887574 C164.769231,3.0887574 167.710059,4.29585799 170.177515,6.75147929 C172.627219,9.21301775 173.852071,12.1715976 173.852071,15.6331361 C173.852071,19.1005917 172.627219,22.0710059 170.177515,24.5207101 C167.710059,26.9704142 164.769231,28.2130178 161.289941,28.2130178 C157.822485,28.2130178 154.863905,26.9704142 152.414201,24.5207101 C149.964497,22.0710059 148.727811,19.1005917 148.727811,15.6331361 L148.727811,15.6331361 Z" id="i" fill="#6D6F71"></path>
                    <path d="M0.763313609,62.5147929 C-0.25443787,60.0532544 -0.25443787,57.5147929 0.763313609,54.8461538 C1.77514793,52.1952663 3.40236686,50.3668639 5.66863905,49.3491124 C8.10650888,48.3195266 10.4142012,48.4674556 12.556213,49.8106509 C14.6923077,51.1360947 16.4852071,52.704142 17.9289941,54.5443787 L57.7455621,162.994083 L99.1183432,54.5443787 C100.526627,52.295858 102.366864,50.6627219 104.621302,49.6331361 C106.852071,48.6331361 109.100592,48.6331361 111.366864,49.6331361 C113.798817,50.6627219 115.491124,52.3964497 116.402367,54.8461538 C117.319527,57.295858 117.266272,59.6508876 116.242604,61.9053254 C116.047337,62.3136095 115.284024,64.4023669 113.95858,68.183432 C112.621302,71.9526627 110.177515,78.6035503 106.597633,88.0769231 C103.029586,97.5798817 98.112426,110.573964 91.8994083,127.005917 C85.6508876,143.449704 77.6508876,164.313609 67.8579882,189.650888 C67.0295858,191.893491 65.852071,193.739645 64.3254438,195.171598 C62.7869822,196.579882 60.6094675,197.313609 57.7455621,197.313609 C54.8816568,197.313609 52.5798817,196.431953 50.8343195,194.710059 C49.1005917,192.952663 47.9467456,191.278107 47.3195266,189.650888 C38.7455621,166.159763 31.4970414,146.349112 25.5680473,130.207101 C19.6390533,114.088757 14.852071,101.017751 11.183432,90.9881657 C7.49112426,80.9881657 4.84615385,73.7988166 3.21893491,69.408284 C1.56213018,65 0.763313609,62.7100592 0.763313609,62.5147929" id="v" fill="#6D6F71"></path>
                </g>
            </g>
        </g>
    </g>
</svg>