<?xml version="1.0" encoding="UTF-8" standalone="no"?>
<svg width="190px" height="191px" viewBox="0 0 190 191" version="1.1" xmlns="http://www.w3.org/2000/svg" xmlns:xlink="http://www.w3.org/1999/xlink" xmlns:sketch="http://www.bohemiancoding.com/sketch/ns">
    <!-- Generator: Sketch 3.3.2 (12043) - http://www.bohemiancoding.com/sketch -->
    <title>Line</title>
    <desc>Created with Sketch.</desc>
    <defs></defs>
    <g id="Page-1" stroke="none" stroke-width="1" fill="none" fill-rule="evenodd" sketch:type="MSPage">
        <g id="logos" sketch:type="MSLayerGroup" transform="translate(-218.000000, -8.000000)">
            <g id="Line" transform="translate(220.000000, 9.000000)">
                <g id="Group" transform="translate(0.000000, 113.000000)">
                    <g id="Shape" sketch:type="MSShapeGroup">
                        <g transform="translate(32.000000, 19.000000)" fill="#000000">
                            <path d="M13.175,13.544 L13.176,22.567 C13.176,24.529 12.624,26.114 11.521,27.322 C10.418,28.53 8.829,29.258 6.751,29.504 C4.721,29.746 3.161,29.408 2.071,28.492 C0.982,27.576 0.437,26.137 0.437,24.174 L0.436,15.059 L4.478,14.579 L4.479,23.377 C4.479,24.437 4.676,25.183 5.07,25.614 C5.464,26.045 6.045,26.216 6.811,26.124 C7.632,26.027 8.228,25.718 8.598,25.199 C8.968,24.68 9.153,23.881 9.153,22.801 L9.152,14.024 L13.175,13.544 L13.175,13.544 Z"></path>
                            <path d="M30.237,18.991 C30.238,21.513 29.624,23.505 28.395,24.963 C27.166,26.421 25.368,27.292 22.999,27.573 C20.663,27.85 18.873,27.404 17.628,26.233 C16.382,25.061 15.759,23.214 15.758,20.692 C15.758,18.197 16.378,16.217 17.616,14.754 C18.855,13.291 20.655,12.419 23.017,12.138 C25.385,11.856 27.181,12.295 28.404,13.455 C29.626,14.617 30.237,16.461 30.237,18.991 L30.237,18.991 Z M19.994,20.209 C19.995,23.107 20.996,24.438 22.999,24.199 C24.017,24.078 24.772,23.636 25.265,22.873 C25.757,22.111 26.002,20.984 26.002,19.494 C26.002,17.996 25.752,16.921 25.253,16.265 C24.754,15.611 24.009,15.341 23.019,15.459 C21.002,15.7 19.994,17.284 19.994,20.209 L19.994,20.209 Z"></path>
                            <path d="M36.881,25.717 L32.92,26.188 L32.918,11.197 L41.716,10.151 L41.717,13.401 L36.88,13.976 L36.88,16.836 L41.34,16.306 L41.34,19.557 L36.88,20.087 L36.881,25.717 L36.881,25.717 Z"></path>
                            <path d="M50.752,24.067 L46.73,24.546 L46.729,12.867 L43.094,13.3 L43.093,9.988 L54.375,8.646 L54.375,11.958 L50.75,12.389 L50.752,24.067 L50.752,24.067 Z"></path>
                            <path d="M70.528,21.715 L68.798,21.921 L68.797,14.866 L60.956,15.799 L60.957,22.854 L59.227,23.059 L59.225,8.069 L60.955,7.863 L60.956,14.241 L68.797,13.308 L68.796,6.93 L70.526,6.724 L70.528,21.715 L70.528,21.715 Z" opacity="0.82"></path>
                            <path d="M83.955,20.118 L82.101,15.571 L76.134,16.28 L74.301,21.266 L72.551,21.475 L78.435,5.722 L79.891,5.549 L85.746,19.904 L83.955,20.118 L83.955,20.118 Z M81.562,14.066 L79.83,9.627 C79.606,9.065 79.375,8.372 79.138,7.546 C78.989,8.22 78.775,8.968 78.496,9.786 L76.746,14.64 L81.562,14.066 L81.562,14.066 Z" opacity="0.82"></path>
                            <path d="M94.188,5.253 C92.552,5.447 91.26,6.15 90.314,7.359 C89.367,8.569 88.893,10.127 88.893,12.035 C88.894,13.997 89.35,15.459 90.263,16.42 C91.176,17.381 92.478,17.761 94.168,17.561 C95.207,17.437 96.391,17.108 97.722,16.574 L97.722,18.102 C96.69,18.614 95.417,18.96 93.904,19.14 C91.712,19.401 90.019,18.932 88.828,17.734 C87.637,16.537 87.041,14.704 87.04,12.235 C87.04,10.691 87.327,9.303 87.9,8.073 C88.474,6.843 89.302,5.848 90.384,5.091 C91.467,4.333 92.741,3.867 94.208,3.693 C95.768,3.507 97.134,3.632 98.301,4.068 L97.568,5.652 C96.441,5.252 95.314,5.12 94.188,5.253 L94.188,5.253 Z" opacity="0.82"></path>
                            <path d="M111.721,16.817 L109.685,17.059 L104.257,10.434 L102.698,12.014 L102.699,17.889 L100.969,18.096 L100.967,3.104 L102.697,2.899 L102.698,10.333 L109.448,2.097 L111.495,1.853 L105.509,9.077 L111.721,16.817 L111.721,16.817 Z" opacity="0.82"></path>
                            <path d="M122.165,11.586 C122.166,12.904 121.69,13.99 120.74,14.842 C119.79,15.693 118.5,16.215 116.871,16.408 C115.105,16.619 113.748,16.551 112.798,16.206 L112.798,14.524 C113.409,14.712 114.074,14.837 114.794,14.902 C115.514,14.967 116.226,14.957 116.932,14.874 C118.086,14.736 118.955,14.413 119.539,13.902 C120.122,13.392 120.414,12.744 120.413,11.957 C120.413,11.437 120.309,11.025 120.102,10.718 C119.895,10.411 119.549,10.147 119.064,9.924 C118.579,9.701 117.84,9.471 116.849,9.234 C115.464,8.9 114.475,8.426 113.881,7.813 C113.286,7.2 112.989,6.344 112.989,5.243 C112.989,4.089 113.42,3.118 114.282,2.331 C115.143,1.545 116.284,1.067 117.703,0.899 C119.182,0.722 120.544,0.835 121.786,1.233 L121.246,2.815 C120.017,2.442 118.823,2.325 117.662,2.461 C116.746,2.57 116.029,2.854 115.514,3.312 C114.999,3.77 114.742,4.35 114.742,5.055 C114.742,5.575 114.837,5.989 115.027,6.297 C115.216,6.606 115.538,6.872 115.989,7.096 C116.44,7.319 117.131,7.543 118.061,7.768 C119.623,8.142 120.697,8.616 121.284,9.188 C121.871,9.762 122.165,10.561 122.165,11.586 L122.165,11.586 Z" opacity="0.82"></path>
                        </g>
                        <path d="M25.795,26.808 L160.46,10.793 L160.464,40.793 L25.798,56.808 L25.795,26.808 Z" stroke="#000000" stroke-width="2"></path>
                        <path d="M25.798,56.808 L33.859,62.824 C14.598,65.115 0.316,66.814 0.316,66.814 L10.716,50.892 L0.312,36.814 C0.312,36.814 10.613,35.588 25.515,33.816" stroke="#FFFFFF" stroke-width="2"></path>
                        <path d="M25.798,56.808 L33.859,62.824 C14.598,65.115 0.316,66.814 0.316,66.814 L10.716,50.892 L0.312,36.814 C0.312,36.814 10.613,35.588 25.515,33.816" stroke="#000000" stroke-width="2"></path>
                        <path d="M33.858,62.824 L33.894,56.335" stroke="#000000" stroke-width="2"></path>
                        <path d="M160.413,10.713 L152.354,4.697 C171.616,2.406 185.897,0.708 185.897,0.708 L175.499,16.628 L185.901,30.708 C185.901,30.708 175.6,31.933 160.698,33.706" stroke="#FFFFFF" stroke-width="2"></path>
                        <path d="M160.413,10.713 L152.354,4.697 C171.616,2.406 185.897,0.708 185.897,0.708 L175.499,16.628 L185.901,30.708 C185.901,30.708 175.6,31.933 160.698,33.706" stroke="#000000" stroke-width="2"></path>
                        <path d="M152.354,4.698 L152.331,11.626" stroke="#000000" stroke-width="2"></path>
                    </g>
                    <text id="2016" fill="#000000" sketch:type="MSTextLayer" transform="translate(95.302710, 66.768140) rotate(-0.006303) translate(-95.302710, -66.768140) " font-family="Helvetica" font-size="23.368" font-weight="normal">
                        <tspan x="69.3027098" y="75.7681399">2016</tspan>
                    </text>
                </g>
                <path d="M120.099,118.43 C117.058,114.102 113.111,110.306 110.263,105.91 C105.273,98.206 100.392,86.521 99.564,77.386 C99.392,75.47 97.578,67.217 99.699,65.996 C105.988,62.795 112.258,59.556 118.582,56.429 C127.197,52.166 121.254,54.566 130.023,50.642 C130.023,50.642 140.193,46.817 144.156,43.106 C149.174,38.411 149.125,31.323 150.263,25.02 C150.408,22.077 150.589,19.131 150.718,16.188 C150.806,14.22 150.564,12.244 150.429,10.283 C150.296,8.362 150.177,6.405 149.644,4.545 C148.665,1.125 145.212,-1.372 142.037,0.995 C139.648,2.776 138.933,5.761 138.617,8.568 C138.381,10.643 138.285,12.71 138.234,14.778 C138.234,14.778 138.111,24.348 137.431,26.213 C136.142,29.752 132.251,30.824 130.224,28.902 C127.353,26.18 128.449,15.491 127.413,11.868 C126.722,9.453 124.284,7.691 122.042,9.361 C120.356,10.619 119.851,12.726 119.628,14.708 C119.411,16.617 119.36,18.516 119.333,20.42 L119.312,21.797 C119.355,23.315 119.328,30.268 118.783,31.762 C117.83,34.373 114.959,35.164 113.463,33.747 C111.342,31.737 112.152,22.422 111.387,19.746 C110.877,17.964 109.078,16.662 107.422,17.896 C106.178,18.824 105.805,20.379 105.639,21.843 C105.453,23.468 105.434,25.085 105.412,26.71 C105.451,27.23 105.482,27.751 105.504,28.272 C105.504,28.272 105.524,37.612 103.313,41.419 C102.219,43.306 96.049,48.015 94.625,48.942 C92.504,50.323 90.09,51.27 87.594,51.688 C85.266,51.107 83.026,50.264 80.67,49.766 C77.082,49.006 73.777,49.455 70.186,49.954 C68.848,50.139 66.598,50.882 65.262,50.519 C64.711,50.368 64.166,50.188 63.631,49.981 L62.973,49.696 C61.549,48.768 55.379,44.059 54.285,42.173 C52.074,38.365 51.918,33.311 52.094,29.026 C52.115,28.505 52.147,27.984 52.186,27.464 C52.165,25.839 52.145,24.222 51.959,22.597 C51.793,21.133 51.42,19.577 50.176,18.65 C48.52,17.416 46.721,18.717 46.211,20.5 C45.445,23.176 46.256,32.491 44.135,34.501 C42.639,35.918 39.768,35.127 38.815,32.516 C38.27,31.022 38.243,24.069 38.286,22.551 L38.265,21.174 C38.238,19.27 38.187,17.371 37.97,15.462 C37.747,13.481 37.241,11.373 35.556,10.115 C33.314,8.445 30.876,10.207 30.185,12.622 C29.15,16.245 30.246,26.934 27.374,29.656 C25.347,31.578 21.456,30.506 20.167,26.967 C19.487,25.103 19.364,15.532 19.364,15.532 C19.313,13.464 19.218,11.397 18.981,9.322 C18.665,6.515 17.95,3.53 15.561,1.749 C12.385,-0.618 8.932,1.879 7.954,5.299 C7.421,7.159 7.302,9.116 7.169,11.037 C7.034,12.998 6.792,14.975 6.88,16.942 C7.009,19.885 7.191,22.831 7.335,25.774 C8.474,32.077 8.425,39.165 13.442,43.86 C17.405,47.571 27.575,51.396 27.575,51.396 C36.345,55.32 30.401,52.92 39.016,57.183 C42.989,59.148 46.942,61.157 50.893,63.173 L51.596,63.41 C51.655,63.448 51.713,63.486 51.772,63.523 C45.731,72.917 27.465,76.496 27.465,76.496 C7.406,83.052 9.492,104.308 18.473,110.058 C27.455,115.81 32.467,109.605 32.467,109.605 L32.692,109.402 L34.256,109.481 L34.469,112.075 C38.817,117.515 48.09,110.824 48.09,110.824 C48.09,110.824 54.828,111.683 55.24,115.008 C55.519,117.252 56.802,123.446 57.607,127.236 L120.099,118.43 L120.099,118.43 Z" id="Shape" stroke="#000000" stroke-width="2" sketch:type="MSShapeGroup"></path>
            </g>
        </g>
    </g>
</svg>