<?xml version="1.0" encoding="UTF-8" standalone="no"?>
<svg width="190px" height="194px" viewBox="0 0 190 194" version="1.1" xmlns="http://www.w3.org/2000/svg" xmlns:xlink="http://www.w3.org/1999/xlink" xmlns:sketch="http://www.bohemiancoding.com/sketch/ns">
    <!-- Generator: Sketch 3.3.2 (12043) - http://www.bohemiancoding.com/sketch -->
    <title>logo-line</title>
    <desc>Created with Sketch.</desc>
    <defs></defs>
    <g id="Page-1" stroke="none" stroke-width="1" fill="none" fill-rule="evenodd" sketch:type="MSPage">
        <g id="Artboard-1" sketch:type="MSArtboardGroup" transform="translate(-56.000000, -24.000000)">
            <g id="logo-line" sketch:type="MSLayerGroup" transform="translate(58.000000, 24.000000)">
                <path d="M45.175,147.544 L45.176,156.567 C45.176,158.529 44.624,160.114 43.521,161.322 C42.418,162.53 40.829,163.258 38.751,163.504 C36.721,163.746 35.161,163.408 34.071,162.492 C32.982,161.576 32.437,160.137 32.437,158.174 L32.436,149.059 L36.478,148.579 L36.479,157.377 C36.479,158.437 36.676,159.183 37.07,159.614 C37.464,160.045 38.045,160.216 38.811,160.124 C39.632,160.027 40.228,159.718 40.598,159.199 C40.968,158.68 41.153,157.881 41.153,156.801 L41.152,148.024 L45.175,147.544 L45.175,147.544 Z" id="Shape" fill="#FFFFFF" sketch:type="MSShapeGroup"></path>
                <path d="M62.237,152.991 C62.238,155.513 61.624,157.505 60.395,158.963 C59.166,160.421 57.368,161.292 54.999,161.573 C52.663,161.85 50.873,161.404 49.628,160.233 C48.382,159.061 47.759,157.214 47.758,154.692 C47.758,152.197 48.378,150.217 49.616,148.754 C50.855,147.291 52.655,146.419 55.017,146.138 C57.385,145.856 59.181,146.295 60.404,147.455 C61.626,148.617 62.237,150.461 62.237,152.991 L62.237,152.991 L62.237,152.991 Z M51.994,154.209 C51.995,157.107 52.996,158.438 54.999,158.199 C56.017,158.078 56.772,157.636 57.265,156.873 C57.757,156.111 58.002,154.984 58.002,153.494 C58.002,151.996 57.752,150.921 57.253,150.265 C56.754,149.611 56.009,149.341 55.019,149.459 C53.002,149.7 51.994,151.284 51.994,154.209 L51.994,154.209 L51.994,154.209 Z" id="Shape" fill="#FFFFFF" sketch:type="MSShapeGroup"></path>
                <path d="M68.881,159.717 L64.92,160.188 L64.918,145.197 L73.716,144.151 L73.717,147.401 L68.88,147.976 L68.88,150.836 L73.34,150.306 L73.34,153.557 L68.88,154.087 L68.881,159.717 L68.881,159.717 Z" id="Shape" fill="#FFFFFF" sketch:type="MSShapeGroup"></path>
                <path d="M82.752,158.067 L78.73,158.546 L78.729,146.867 L75.094,147.3 L75.093,143.988 L86.375,142.646 L86.375,145.958 L82.75,146.389 L82.752,158.067 L82.752,158.067 Z" id="Shape" fill="#FFFFFF" sketch:type="MSShapeGroup"></path>
                <path d="M102.528,155.715 L100.798,155.921 L100.797,148.866 L92.956,149.799 L92.957,156.854 L91.227,157.059 L91.225,142.069 L92.955,141.863 L92.956,148.241 L100.797,147.308 L100.796,140.93 L102.526,140.724 L102.528,155.715 L102.528,155.715 Z" id="Shape" opacity="0.82" fill="#FFFFFF" sketch:type="MSShapeGroup"></path>
                <path d="M115.955,154.118 L114.101,149.571 L108.134,150.28 L106.301,155.266 L104.551,155.475 L110.435,139.722 L111.891,139.549 L117.746,153.904 L115.955,154.118 L115.955,154.118 Z M113.562,148.066 L111.83,143.627 C111.606,143.065 111.375,142.372 111.138,141.546 C110.989,142.22 110.775,142.968 110.496,143.786 L108.746,148.64 L113.562,148.066 L113.562,148.066 Z" id="Shape" opacity="0.82" fill="#FFFFFF" sketch:type="MSShapeGroup"></path>
                <path d="M126.188,139.253 C124.552,139.447 123.26,140.15 122.314,141.359 C121.367,142.569 120.893,144.127 120.893,146.035 C120.894,147.997 121.35,149.459 122.263,150.42 C123.176,151.381 124.478,151.761 126.168,151.561 C127.207,151.437 128.391,151.108 129.722,150.574 L129.722,152.102 C128.69,152.614 127.417,152.96 125.904,153.14 C123.712,153.401 122.019,152.932 120.828,151.734 C119.637,150.537 119.041,148.704 119.04,146.235 C119.04,144.691 119.327,143.303 119.9,142.073 C120.474,140.843 121.302,139.848 122.384,139.091 C123.467,138.333 124.741,137.867 126.208,137.693 C127.768,137.507 129.134,137.632 130.301,138.068 L129.568,139.652 C128.441,139.252 127.314,139.12 126.188,139.253 L126.188,139.253 L126.188,139.253 Z" id="Shape" opacity="0.82" fill="#FFFFFF" sketch:type="MSShapeGroup"></path>
                <path d="M143.721,150.817 L141.685,151.059 L136.257,144.434 L134.698,146.014 L134.699,151.889 L132.969,152.096 L132.967,137.104 L134.697,136.899 L134.698,144.333 L141.448,136.097 L143.495,135.853 L137.509,143.077 L143.721,150.817 L143.721,150.817 Z" id="Shape" opacity="0.82" fill="#FFFFFF" sketch:type="MSShapeGroup"></path>
                <path d="M154.165,145.586 C154.166,146.904 153.69,147.99 152.74,148.842 C151.79,149.693 150.5,150.215 148.871,150.408 C147.105,150.619 145.748,150.551 144.798,150.206 L144.798,148.524 C145.409,148.712 146.074,148.837 146.794,148.902 C147.514,148.967 148.226,148.957 148.932,148.874 C150.086,148.736 150.955,148.413 151.539,147.902 C152.122,147.392 152.414,146.744 152.413,145.957 C152.413,145.437 152.309,145.025 152.102,144.718 C151.895,144.411 151.549,144.147 151.064,143.924 C150.579,143.701 149.84,143.471 148.849,143.234 C147.464,142.9 146.475,142.426 145.881,141.813 C145.286,141.2 144.989,140.344 144.989,139.243 C144.989,138.089 145.42,137.118 146.282,136.331 C147.143,135.545 148.284,135.067 149.703,134.899 C151.182,134.722 152.544,134.835 153.786,135.233 L153.246,136.815 C152.017,136.442 150.823,136.325 149.662,136.461 C148.746,136.57 148.029,136.854 147.514,137.312 C146.999,137.77 146.742,138.35 146.742,139.055 C146.742,139.575 146.837,139.989 147.027,140.297 C147.216,140.606 147.538,140.872 147.989,141.096 C148.44,141.319 149.131,141.543 150.061,141.768 C151.623,142.142 152.697,142.616 153.284,143.188 C153.871,143.762 154.165,144.561 154.165,145.586 L154.165,145.586 L154.165,145.586 Z" id="Shape" opacity="0.82" fill="#FFFFFF" sketch:type="MSShapeGroup"></path>
                <text id="2016" fill="#FFFFFF" sketch:type="MSTextLayer" font-family="Open Sans" font-size="23.368" font-weight="normal">
                    <tspan x="69.3011698" y="192.771">2016</tspan>
                </text>
                <path d="M25.795,141.808 L160.46,125.793 L160.464,155.793 L25.798,171.808 L25.795,141.808 L25.795,141.808 Z" id="Shape" stroke="#FFFFFF" stroke-width="2" sketch:type="MSShapeGroup"></path>
                <path d="M25.798,171.808 L33.859,177.824 C14.598,180.115 0.316,181.814 0.316,181.814 L10.716,165.892 L0.312,151.814 C0.312,151.814 10.613,150.588 25.515,148.816" id="Shape" stroke="#FFFFFF" stroke-width="2" sketch:type="MSShapeGroup"></path>
                <path d="M25.798,171.808 L33.859,177.824 C14.598,180.115 0.316,181.814 0.316,181.814 L10.716,165.892 L0.312,151.814 C0.312,151.814 10.613,150.588 25.515,148.816" id="Shape" stroke="#FFFFFF" stroke-width="2" sketch:type="MSShapeGroup"></path>
                <path d="M33.858,177.824 L33.894,171.335" id="Shape" stroke="#FFFFFF" stroke-width="2" sketch:type="MSShapeGroup"></path>
                <path d="M160.413,125.713 L152.354,119.697 C171.616,117.406 185.897,115.708 185.897,115.708 L175.499,131.628 L185.901,145.708 C185.901,145.708 175.6,146.933 160.698,148.706" id="Shape" stroke="#FFFFFF" stroke-width="2" sketch:type="MSShapeGroup"></path>
                <path d="M160.413,125.713 L152.354,119.697 C171.616,117.406 185.897,115.708 185.897,115.708 L175.499,131.628 L185.901,145.708 C185.901,145.708 175.6,146.933 160.698,148.706" id="Shape" stroke="#FFFFFF" stroke-width="2" sketch:type="MSShapeGroup"></path>
                <path d="M152.354,119.698 L152.331,126.626" id="Shape" stroke="#FFFFFF" stroke-width="2" sketch:type="MSShapeGroup"></path>
                <path d="M120.099,120.43 C117.058,116.102 113.111,112.306 110.263,107.91 C105.273,100.206 100.392,88.521 99.564,79.386 C99.392,77.47 97.578,69.217 99.699,67.996 C105.988,64.795 112.258,61.556 118.582,58.429 C127.197,54.166 121.254,56.566 130.023,52.642 C130.023,52.642 140.193,48.817 144.156,45.106 C149.174,40.411 149.125,33.323 150.263,27.02 C150.408,24.077 150.589,21.131 150.718,18.188 C150.806,16.22 150.564,14.244 150.429,12.283 C150.296,10.362 150.177,8.405 149.644,6.545 C148.665,3.125 145.212,0.628 142.037,2.995 C139.648,4.776 138.933,7.761 138.617,10.568 C138.381,12.643 138.285,14.71 138.234,16.778 C138.234,16.778 138.111,26.348 137.431,28.213 C136.142,31.752 132.251,32.824 130.224,30.902 C127.353,28.18 128.449,17.491 127.413,13.868 C126.722,11.453 124.284,9.691 122.042,11.361 C120.356,12.619 119.851,14.726 119.628,16.708 C119.411,18.617 119.36,20.516 119.333,22.42 L119.312,23.797 C119.355,25.315 119.328,32.268 118.783,33.762 C117.83,36.373 114.959,37.164 113.463,35.747 C111.342,33.737 112.152,24.422 111.387,21.746 C110.877,19.964 109.078,18.662 107.422,19.896 C106.178,20.824 105.805,22.379 105.639,23.843 C105.453,25.468 105.434,27.085 105.412,28.71 C105.451,29.23 105.482,29.751 105.504,30.272 C105.504,30.272 105.524,39.612 103.313,43.419 C102.219,45.306 96.049,50.015 94.625,50.942 C92.504,52.323 90.09,53.27 87.594,53.688 C85.266,53.107 83.026,52.264 80.67,51.766 C77.082,51.006 73.777,51.455 70.186,51.954 C68.848,52.139 66.598,52.882 65.262,52.519 C64.711,52.368 64.166,52.188 63.631,51.981 L62.973,51.696 C61.549,50.768 55.379,46.059 54.285,44.173 C52.074,40.365 51.918,35.311 52.094,31.026 C52.115,30.505 52.147,29.984 52.186,29.464 C52.165,27.839 52.145,26.222 51.959,24.597 C51.793,23.133 51.42,21.577 50.176,20.65 C48.52,19.416 46.721,20.717 46.211,22.5 C45.445,25.176 46.256,34.491 44.135,36.501 C42.639,37.918 39.768,37.127 38.815,34.516 C38.27,33.022 38.243,26.069 38.286,24.551 L38.265,23.174 C38.238,21.27 38.187,19.371 37.97,17.462 C37.747,15.481 37.241,13.373 35.556,12.115 C33.314,10.445 30.876,12.207 30.185,14.622 C29.15,18.245 30.246,28.934 27.374,31.656 C25.347,33.578 21.456,32.506 20.167,28.967 C19.487,27.103 19.364,17.532 19.364,17.532 C19.313,15.464 19.218,13.397 18.981,11.322 C18.665,8.515 17.95,5.53 15.561,3.749 C12.385,1.382 8.932,3.879 7.954,7.299 C7.421,9.159 7.302,11.116 7.169,13.037 C7.034,14.998 6.792,16.975 6.88,18.942 C7.009,21.885 7.191,24.831 7.335,27.774 C8.474,34.077 8.425,41.165 13.442,45.86 C17.405,49.571 27.575,53.396 27.575,53.396 C36.345,57.32 30.401,54.92 39.016,59.183 C42.989,61.148 46.942,63.157 50.893,65.173 L51.596,65.41 C51.655,65.448 51.713,65.486 51.772,65.523 C45.731,74.917 27.465,78.496 27.465,78.496 C7.406,85.052 9.492,106.308 18.473,112.058 C27.455,117.81 32.467,111.605 32.467,111.605 L32.692,111.402 L34.256,111.481 L34.469,114.075 C38.817,119.515 48.09,112.824 48.09,112.824 C48.09,112.824 54.828,113.683 55.24,117.008 C55.519,119.252 56.802,125.446 57.607,129.236 L120.099,120.43 L120.099,120.43 Z" id="Shape" stroke="#FFFFFF" stroke-width="2" sketch:type="MSShapeGroup" transform="translate(78.799000, 65.649882) rotate(1.000000) translate(-78.799000, -65.649882) "></path>
            </g>
        </g>
    </g>
</svg>