<?xml version="1.0" encoding="UTF-8" standalone="no"?>
<svg width="467px" height="56px" viewBox="0 0 467 56" version="1.1" xmlns="http://www.w3.org/2000/svg" xmlns:xlink="http://www.w3.org/1999/xlink" xmlns:sketch="http://www.bohemiancoding.com/sketch/ns">
    <!-- Generator: Sketch 3.3.2 (12043) - http://www.bohemiancoding.com/sketch -->
    <title>Page 1</title>
    <desc>Created with Sketch.</desc>
    <defs></defs>
    <g id="Page-1" stroke="none" stroke-width="1" fill="none" fill-rule="evenodd" sketch:type="MSPage">
        <g id="thalmic_labs_logo" sketch:type="MSLayerGroup">
            <g id="Page-1" sketch:type="MSShapeGroup">
                <path d="M67.8339,21.6422 C67.7619,36.8452 56.9979,49.9002 42.1349,52.8552 L42.1349,18.9742 C42.1349,18.8722 42.1289,18.7552 42.1289,18.6212 C42.1229,17.9682 42.0989,16.4372 42.5049,16.2272 C42.6199,16.1702 42.7369,16.1382 42.8629,16.1382 C43.2489,16.1382 43.6999,16.4372 44.0609,16.9332 C44.6059,17.6812 45.0839,19.7512 45.0839,21.3612 C45.0839,22.9082 44.7379,24.3972 44.0789,25.7502 L44.0429,25.8082 C42.8209,27.9182 43.2119,30.2322 45.0059,31.5622 C45.7249,32.0932 46.5769,32.3702 47.4649,32.3702 C48.7739,32.3702 50.0159,31.7472 50.8079,30.6712 C52.4749,27.8562 53.3529,24.6352 53.3529,21.3612 C53.3529,18.0642 52.4869,14.8532 50.8439,12.0762 L50.8079,12.0112 C50.5639,11.6822 50.4589,11.2712 50.5219,10.8632 C50.5849,10.4542 50.7989,10.0902 51.1299,9.8462 C51.8069,9.3462 52.7819,9.4772 53.2809,10.1482 C55.3579,13.5192 56.4529,17.3992 56.4529,21.3612 C56.4529,25.3222 55.3579,29.2002 53.2629,32.5972 C51.9269,34.4062 52.3339,36.9812 54.1719,38.3422 C54.8879,38.8732 55.7399,39.1542 56.6269,39.1542 C57.9339,39.1542 59.1799,38.5242 59.9679,37.4662 C63.0789,32.6512 64.7259,27.0842 64.7259,21.3612 C64.7259,15.6172 63.0949,10.0662 60.0069,5.2972 L59.9679,5.2372 C59.7209,4.9082 59.6189,4.4942 59.6789,4.0862 C59.7389,3.6782 59.9559,3.3162 60.2929,3.0722 C60.9609,2.5732 61.9539,2.7122 62.4419,3.3802 C65.9619,8.7332 67.8219,14.9482 67.8219,21.3652 L67.8339,21.6422 Z M70.4099,21.3612 C70.4099,14.4032 68.3819,7.6642 64.5359,1.8552 C63.7589,0.8032 62.5139,0.1772 61.2079,0.1772 C60.3199,0.1772 59.4679,0.4622 58.7519,0.9882 C56.9129,2.3502 56.5069,4.9322 57.8279,6.7002 L57.8609,6.7702 C60.6599,11.1352 62.1399,16.1822 62.1399,21.3612 C62.1399,26.5402 60.6599,31.5882 57.8609,35.9552 L57.8519,35.9772 C57.3499,36.6102 56.3659,36.7502 55.7099,36.2612 C55.3699,36.0092 55.1469,35.6562 55.0779,35.2662 C55.0029,34.8762 55.0989,34.4792 55.3579,34.1292 L55.3879,34.0732 C57.7799,30.2562 59.0409,25.8602 59.0409,21.3612 C59.0409,16.8562 57.7889,12.4712 55.4209,8.6902 L55.3759,8.6322 C54.5989,7.5802 53.3599,6.9542 52.0509,6.9542 C51.1629,6.9542 50.3109,7.2372 49.5919,7.7652 C48.7009,8.4242 48.1119,9.3842 47.9429,10.4662 C47.7589,11.5552 48.0209,12.6432 48.6829,13.5412 C50.0489,15.9222 50.7659,18.6212 50.7659,21.3612 C50.7659,24.1472 50.0789,26.7652 48.7069,29.1552 L48.6889,29.1922 C48.2019,29.8512 47.2209,29.9812 46.5469,29.4842 C45.8419,28.9632 45.6919,28.0922 46.1799,27.3222 L46.2399,27.2212 C47.1909,25.4192 47.6719,23.4472 47.6719,21.3612 C47.6719,19.3022 47.1669,17.2622 46.2129,15.4702 C45.5929,14.3012 44.3199,13.5492 42.9689,13.5492 C42.3009,13.5492 41.6479,13.7282 41.0279,14.0802 C40.0019,14.6642 39.4899,16.3192 39.5469,18.8672 L39.5469,55.8222 L39.8719,55.7882 C57.2299,53.7762 70.3319,39.1232 70.4099,21.6512 L70.4099,21.3612 Z" id="Fill-1" fill="#19BDDB"></path>
                <path d="M3.0575,21.6422 C3.1235,36.8452 13.8905,49.9002 28.7505,52.8552 L28.7505,18.9742 C28.7505,18.8722 28.7535,18.7552 28.7535,18.6212 C28.7685,17.9682 28.7925,16.4372 28.3795,16.2272 C28.2685,16.1702 28.1485,16.1382 28.0245,16.1382 C27.6365,16.1382 27.1915,16.4372 26.8245,16.9332 C26.2765,17.6812 25.8005,19.7512 25.8005,21.3612 C25.8005,22.9082 26.1445,24.3972 26.8065,25.7502 L26.8455,25.8082 C28.0645,27.9182 27.6735,30.2322 25.8765,31.5622 C25.1605,32.0932 24.3145,32.3702 23.4205,32.3702 C22.1125,32.3702 20.8715,31.7472 20.0775,30.6712 C18.4105,27.8562 17.5315,24.6352 17.5315,21.3612 C17.5315,18.0642 18.4015,14.8532 20.0415,12.0762 L20.0775,12.0112 C20.3245,11.6822 20.4265,11.2712 20.3635,10.8632 C20.3065,10.4542 20.0865,10.0902 19.7525,9.8462 C19.0785,9.3462 18.1035,9.4772 17.6045,10.1482 C15.5275,13.5192 14.4325,17.3992 14.4325,21.3612 C14.4325,25.3222 15.5275,29.2002 17.6215,32.5972 C18.9615,34.4062 18.5515,36.9812 16.7165,38.3422 C15.9975,38.8732 15.1485,39.1542 14.2575,39.1542 C12.9515,39.1542 11.7055,38.5242 10.9235,37.4662 C7.8065,32.6512 6.1595,27.0842 6.1595,21.3612 C6.1595,15.6172 7.7945,10.0662 10.8785,5.2972 L10.9235,5.2372 C11.1675,4.9082 11.2665,4.4942 11.2065,4.0862 C11.1465,3.6782 10.9265,3.3162 10.5925,3.0722 C9.9245,2.5732 8.9315,2.7122 8.4405,3.3802 C4.9235,8.7332 3.0635,14.9482 3.0635,21.3652 L3.0575,21.6422 Z M0.4755,21.3612 C0.4755,14.4032 2.5065,7.6642 6.3495,1.8552 C7.1265,0.8032 8.3715,0.1772 9.6775,0.1772 C10.5685,0.1772 11.4175,0.4622 12.1335,0.9882 C13.9685,2.3502 14.3785,4.9322 13.0575,6.7002 L13.0245,6.7702 C10.2255,11.1352 8.7485,16.1822 8.7485,21.3612 C8.7485,26.5402 10.2255,31.5882 13.0245,35.9552 L13.0365,35.9772 C13.5385,36.6102 14.5165,36.7502 15.1725,36.2612 C15.5155,36.0092 15.7415,35.6562 15.8105,35.2662 C15.8795,34.8762 15.7865,34.4792 15.5305,34.1292 L15.4945,34.0732 C13.1085,30.2562 11.8445,25.8602 11.8445,21.3612 C11.8445,16.8562 13.0965,12.4712 15.4615,8.6902 L15.5065,8.6322 C16.2855,7.5802 17.5255,6.9542 18.8345,6.9542 C19.7255,6.9542 20.5775,7.2372 21.2935,7.7652 C22.1845,8.4242 22.7705,9.3842 22.9485,10.4662 C23.1285,11.5552 22.8675,12.6432 22.2025,13.5412 C20.8355,15.9222 20.1135,18.6212 20.1135,21.3612 C20.1135,24.1472 20.8085,26.7652 22.1845,29.1552 L22.1965,29.1922 C22.6835,29.8512 23.6645,29.9812 24.3385,29.4842 C25.0455,28.9632 25.1935,28.0922 24.7055,27.3222 L24.6455,27.2212 C23.6945,25.4192 23.2135,23.4472 23.2135,21.3612 C23.2135,19.3022 23.7185,17.2622 24.6725,15.4702 C25.2955,14.3012 26.5655,13.5492 27.9135,13.5492 C28.5815,13.5492 29.2345,13.7282 29.8575,14.0802 C30.8835,14.6642 31.3985,16.3192 31.3415,18.8672 L31.3385,55.8222 L31.0125,55.7882 C13.6555,53.7762 0.5535,39.1232 0.4755,21.6512 L0.4755,21.3612 Z" id="Fill-3" fill="#19BDDB"></path>
                <path d="M281.9153,27.7493 C281.9153,18.5823 283.1733,7.6043 297.5573,7.6043 C307.6803,7.6043 311.3633,12.9413 311.3633,20.5693 L303.4313,20.5693 C303.4313,15.3843 300.5183,13.4403 297.5573,13.4403 C291.9753,13.4403 290.3353,15.2703 290.3563,27.7493 C290.3593,39.4433 291.9753,42.0613 297.5573,42.0613 C302.1613,42.0613 303.4313,37.3593 303.5633,34.2823 L311.8903,34.2823 C311.8903,43.1883 306.8313,47.8933 297.5573,47.8933 C282.9083,47.8933 281.9153,36.2463 281.9153,27.7493" id="Fill-4" fill="#041A25"></path>
                <path d="M111.32,15.2492 L100.423,15.2492 L100.423,47.5592 L92.263,47.5592 L92.263,15.2492 L81.357,15.2492 L81.357,8.4302 L111.32,8.4302 L111.32,15.2492 Z" id="Fill-5" fill="#041A25"></path>
                <path d="M147.1836,47.5593 L139.0316,47.5593 L139.0316,31.1863 L124.9186,31.1863 L124.9186,47.5593 L116.7636,47.5593 L116.7636,8.4303 L124.9186,8.4303 L124.9186,24.4253 L139.0316,24.4253 L139.0316,8.4303 L147.1836,8.4303 L147.1836,47.5593 Z" id="Fill-6" fill="#041A25"></path>
                <path d="M174.8654,34.1923 L169.7344,19.9703 L164.4714,34.1923 L174.8654,34.1923 Z M187.9704,47.5593 L179.4634,47.5593 L177.0084,40.6333 L162.1814,40.6333 L159.6624,47.5593 L151.1594,47.5593 L166.3614,8.4303 L172.7444,8.4303 L187.9704,47.5593 Z" id="Fill-7" fill="#041A25"></path>
                <path d="M216.9553,47.5593 L191.9733,47.5593 L191.9733,8.4303 L200.1333,8.4303 L200.1333,40.7403 L216.9553,40.7403 L216.9553,47.5593 Z" id="Fill-8" fill="#041A25"></path>
                <path d="M259.0603,47.5593 L250.9023,47.5593 L250.9023,24.7443 L242.9463,39.5903 L237.4243,39.5903 L229.4103,24.7443 L229.4103,47.5593 L221.2493,47.5593 L221.2493,8.4303 L229.2963,8.4303 L240.1743,29.5773 L251.0163,8.4303 L259.0603,8.4303 L259.0603,47.5593 Z" id="Fill-9" fill="#041A25"></path>
                <path d="M275.77,47.559 L267.615,47.559 L267.615,8.43 L275.77,8.43 L275.77,47.559 Z" id="Fill-10" fill="#041A25"></path>
                <path d="M346.1741,47.5531 L320.3881,47.5531 L320.3881,8.4261 L324.8511,8.4261 L324.8511,43.8241 L346.1741,43.8241 L346.1741,47.5531 Z" id="Fill-11" fill="#041A25"></path>
                <path d="M367.8162,35.077 L360.0852,14.411 L352.2162,35.077 L367.8162,35.077 Z M377.1992,47.553 L372.4502,47.553 L369.1042,38.699 L350.8742,38.699 L347.5252,47.553 L342.8032,47.553 L358.1382,8.426 L361.8942,8.426 L377.1992,47.553 Z" id="Fill-12" fill="#041A25"></path>
                <path d="M406.9359,36.6042 C406.9359,35.1372 406.6019,33.8732 405.9219,32.8082 C405.2449,31.7442 404.2759,30.9182 403.0089,30.3392 C401.7389,29.7562 400.2619,29.4662 398.5639,29.4662 L387.2199,29.4662 L387.2199,43.8242 L398.5639,43.8242 C401.1369,43.8242 403.1749,43.1702 404.6819,41.8642 C406.1869,40.5602 406.9359,38.8052 406.9359,36.6042 M406.3039,18.9202 C406.3039,16.6672 405.5609,14.9772 404.0589,13.8472 C402.5609,12.7202 400.5869,12.1572 398.1189,12.1572 L387.2199,12.1572 L387.2199,25.7362 L398.1189,25.7362 C400.5629,25.7362 402.5369,25.1582 404.0469,24.0042 C405.5519,22.8522 406.3039,21.1562 406.3039,18.9202 M411.4019,36.7392 C411.4019,39.0822 410.8899,41.0592 409.8549,42.6702 C408.8259,44.2802 407.3749,45.4982 405.5069,46.3192 C403.6379,47.1412 401.4589,47.5532 398.9799,47.5532 L382.7539,47.5532 L382.7539,8.4262 L398.4679,8.4262 C400.2619,8.4262 401.9319,8.6702 403.4879,9.1542 C405.0429,9.6352 406.3459,10.3202 407.3939,11.2062 C408.4469,12.0882 409.2709,13.1882 409.8669,14.4922 C410.4749,15.7952 410.7729,17.2562 410.7729,18.8642 C410.7729,20.2252 410.5049,21.4812 409.9719,22.6352 C409.4339,23.7892 408.7029,24.7792 407.7669,25.6012 C406.8339,26.4242 405.7839,27.0332 404.6189,27.4272 C405.9729,27.8922 407.1559,28.5622 408.1699,29.4372 C409.1809,30.3162 409.9719,31.3832 410.5409,32.6352 C411.1129,33.8842 411.4019,35.2532 411.4019,36.7392" id="Fill-13" fill="#041A25"></path>
                <path d="M444.7137,36.7921 C444.7137,39.0461 444.1177,41.0111 442.9267,42.6831 C441.7377,44.3561 440.0617,45.6391 437.8887,46.5331 C435.7257,47.4301 433.1887,47.8771 430.2937,47.8771 C428.1927,47.8771 426.3127,47.7021 424.6537,47.3521 C422.9937,47.0021 421.4617,46.4531 420.0627,45.7021 C418.6567,44.9521 417.2997,43.9571 415.9877,42.7231 L419.0447,39.8511 C420.1707,40.9061 421.3077,41.7541 422.4517,42.3881 C423.5917,43.0241 424.8017,43.4741 426.0687,43.7451 C427.3387,44.0111 428.7827,44.1481 430.4047,44.1481 C433.4777,44.1481 435.8847,43.5011 437.6327,42.2131 C439.3757,40.9271 440.2537,39.1541 440.2537,36.9011 C440.2537,35.8801 440.0797,34.9341 439.7367,34.0541 C439.3937,33.1781 438.8967,32.4901 438.2497,31.9891 C437.6177,31.4521 436.9377,31.0641 436.2157,30.8221 C435.4937,30.5811 434.3557,30.3521 432.8157,30.1371 L427.9467,29.4101 C424.6267,28.9131 422.0697,27.9271 420.2727,26.4601 C418.1577,24.6921 417.1017,22.2471 417.1017,19.1351 C417.1017,16.9701 417.6367,15.0491 418.7017,13.3621 C419.7707,11.6831 421.3197,10.3861 423.3547,9.4731 C425.3827,8.5601 427.7537,8.1041 430.4617,8.1041 C433.0987,8.1041 435.3737,8.4301 437.2867,9.0861 C439.2067,9.7351 441.0667,10.8331 442.8847,12.3721 L440.0197,15.0841 C438.7077,13.9551 437.2807,13.1161 435.7437,12.5601 C434.2057,12.0051 432.3907,11.7281 430.2937,11.7281 C428.4787,11.7281 426.9117,12.0281 425.5847,12.6271 C424.2567,13.2271 423.2457,14.0661 422.5537,15.1481 C421.8527,16.2321 421.5067,17.5041 421.5067,18.9751 C421.5067,20.9791 422.1267,22.4801 423.3667,23.4791 C424.6847,24.5551 426.5657,25.2731 429.0057,25.6281 L433.5557,26.2711 C435.3907,26.5251 436.8957,26.8691 438.0937,27.3021 C439.2847,27.7471 440.3207,28.3211 441.1927,29.0391 C443.5457,30.8811 444.7137,33.4621 444.7137,36.7921" id="Fill-14" fill="#041A25"></path>
                <path d="M281.9153,27.7493 C281.9153,18.5823 283.1733,7.6043 297.5573,7.6043 C307.6803,7.6043 311.3633,12.9413 311.3633,20.5693 L303.4313,20.5693 C303.4313,15.3843 300.5183,13.4403 297.5573,13.4403 C291.9753,13.4403 290.3353,15.2703 290.3563,27.7493 C290.3593,39.4433 291.9753,42.0613 297.5573,42.0613 C302.1613,42.0613 303.4313,37.3593 303.5633,34.2823 L311.8903,34.2823 C311.8903,43.1883 306.8313,47.8933 297.5573,47.8933 C282.9083,47.8933 281.9153,36.2463 281.9153,27.7493" id="Fill-15" fill="#041A25"></path>
                <path d="M111.32,15.2492 L100.423,15.2492 L100.423,47.5592 L92.263,47.5592 L92.263,15.2492 L81.357,15.2492 L81.357,8.4302 L111.32,8.4302 L111.32,15.2492 Z" id="Fill-16" fill="#041A25"></path>
                <path d="M147.1836,47.5593 L139.0316,47.5593 L139.0316,31.1863 L124.9186,31.1863 L124.9186,47.5593 L116.7636,47.5593 L116.7636,8.4303 L124.9186,8.4303 L124.9186,24.4253 L139.0316,24.4253 L139.0316,8.4303 L147.1836,8.4303 L147.1836,47.5593 Z" id="Fill-17" fill="#041A25"></path>
                <path d="M174.8654,34.1923 L169.7344,19.9703 L164.4714,34.1923 L174.8654,34.1923 Z M187.9704,47.5593 L179.4634,47.5593 L177.0084,40.6333 L162.1814,40.6333 L159.6624,47.5593 L151.1594,47.5593 L166.3614,8.4303 L172.7444,8.4303 L187.9704,47.5593 Z" id="Fill-18" fill="#041A25"></path>
                <path d="M216.9553,47.5593 L191.9733,47.5593 L191.9733,8.4303 L200.1333,8.4303 L200.1333,40.7403 L216.9553,40.7403 L216.9553,47.5593 Z" id="Fill-19" fill="#041A25"></path>
                <path d="M259.0603,47.5593 L250.9023,47.5593 L250.9023,24.7443 L242.9463,39.5903 L237.4243,39.5903 L229.4103,24.7443 L229.4103,47.5593 L221.2493,47.5593 L221.2493,8.4303 L229.2963,8.4303 L240.1743,29.5773 L251.0163,8.4303 L259.0603,8.4303 L259.0603,47.5593 Z" id="Fill-20" fill="#041A25"></path>
                <path d="M275.77,47.559 L267.615,47.559 L267.615,8.43 L275.77,8.43 L275.77,47.559 Z" id="Fill-21" fill="#041A25"></path>
                <path d="M346.1741,47.5531 L320.3881,47.5531 L320.3881,8.4261 L324.8511,8.4261 L324.8511,43.8241 L346.1741,43.8241 L346.1741,47.5531 Z" id="Fill-22" fill="#041A25"></path>
                <path d="M367.8162,35.077 L360.0852,14.411 L352.2162,35.077 L367.8162,35.077 Z M377.1992,47.553 L372.4502,47.553 L369.1042,38.699 L350.8742,38.699 L347.5252,47.553 L342.8032,47.553 L358.1382,8.426 L361.8942,8.426 L377.1992,47.553 Z" id="Fill-23" fill="#041A25"></path>
                <path d="M406.9359,36.6042 C406.9359,35.1372 406.6019,33.8732 405.9219,32.8082 C405.2449,31.7442 404.2759,30.9182 403.0089,30.3392 C401.7389,29.7562 400.2619,29.4662 398.5639,29.4662 L387.2199,29.4662 L387.2199,43.8242 L398.5639,43.8242 C401.1369,43.8242 403.1749,43.1702 404.6819,41.8642 C406.1869,40.5602 406.9359,38.8052 406.9359,36.6042 M406.3039,18.9202 C406.3039,16.6672 405.5609,14.9772 404.0589,13.8472 C402.5609,12.7202 400.5869,12.1572 398.1189,12.1572 L387.2199,12.1572 L387.2199,25.7362 L398.1189,25.7362 C400.5629,25.7362 402.5369,25.1582 404.0469,24.0042 C405.5519,22.8522 406.3039,21.1562 406.3039,18.9202 M411.4019,36.7392 C411.4019,39.0822 410.8899,41.0592 409.8549,42.6702 C408.8259,44.2802 407.3749,45.4982 405.5069,46.3192 C403.6379,47.1412 401.4589,47.5532 398.9799,47.5532 L382.7539,47.5532 L382.7539,8.4262 L398.4679,8.4262 C400.2619,8.4262 401.9319,8.6702 403.4879,9.1542 C405.0429,9.6352 406.3459,10.3202 407.3939,11.2062 C408.4469,12.0882 409.2709,13.1882 409.8669,14.4922 C410.4749,15.7952 410.7729,17.2562 410.7729,18.8642 C410.7729,20.2252 410.5049,21.4812 409.9719,22.6352 C409.4339,23.7892 408.7029,24.7792 407.7669,25.6012 C406.8339,26.4242 405.7839,27.0332 404.6189,27.4272 C405.9729,27.8922 407.1559,28.5622 408.1699,29.4372 C409.1809,30.3162 409.9719,31.3832 410.5409,32.6352 C411.1129,33.8842 411.4019,35.2532 411.4019,36.7392" id="Fill-24" fill="#041A25"></path>
                <path d="M444.7137,36.7921 C444.7137,39.0461 444.1177,41.0111 442.9267,42.6831 C441.7377,44.3561 440.0617,45.6391 437.8887,46.5331 C435.7257,47.4301 433.1887,47.8771 430.2937,47.8771 C428.1927,47.8771 426.3127,47.7021 424.6537,47.3521 C422.9937,47.0021 421.4617,46.4531 420.0627,45.7021 C418.6567,44.9521 417.2997,43.9571 415.9877,42.7231 L419.0447,39.8511 C420.1707,40.9061 421.3077,41.7541 422.4517,42.3881 C423.5917,43.0241 424.8017,43.4741 426.0687,43.7451 C427.3387,44.0111 428.7827,44.1481 430.4047,44.1481 C433.4777,44.1481 435.8847,43.5011 437.6327,42.2131 C439.3757,40.9271 440.2537,39.1541 440.2537,36.9011 C440.2537,35.8801 440.0797,34.9341 439.7367,34.0541 C439.3937,33.1781 438.8967,32.4901 438.2497,31.9891 C437.6177,31.4521 436.9377,31.0641 436.2157,30.8221 C435.4937,30.5811 434.3557,30.3521 432.8157,30.1371 L427.9467,29.4101 C424.6267,28.9131 422.0697,27.9271 420.2727,26.4601 C418.1577,24.6921 417.1017,22.2471 417.1017,19.1351 C417.1017,16.9701 417.6367,15.0491 418.7017,13.3621 C419.7707,11.6831 421.3197,10.3861 423.3547,9.4731 C425.3827,8.5601 427.7537,8.1041 430.4617,8.1041 C433.0987,8.1041 435.3737,8.4301 437.2867,9.0861 C439.2067,9.7351 441.0667,10.8331 442.8847,12.3721 L440.0197,15.0841 C438.7077,13.9551 437.2807,13.1161 435.7437,12.5601 C434.2057,12.0051 432.3907,11.7281 430.2937,11.7281 C428.4787,11.7281 426.9117,12.0281 425.5847,12.6271 C424.2567,13.2271 423.2457,14.0661 422.5537,15.1481 C421.8527,16.2321 421.5067,17.5041 421.5067,18.9751 C421.5067,20.9791 422.1267,22.4801 423.3667,23.4791 C424.6847,24.5551 426.5657,25.2731 429.0057,25.6281 L433.5557,26.2711 C435.3907,26.5251 436.8957,26.8691 438.0937,27.3021 C439.2847,27.7471 440.3207,28.3211 441.1927,29.0391 C443.5457,30.8811 444.7137,33.4621 444.7137,36.7921" id="Fill-25" fill="#041A25"></path>
                <path d="M461.824,16.0633 L459.7,10.1453 L459.615,10.1453 L459.676,11.5133 L459.676,16.0633 L458.418,16.0633 L458.418,8.4303 L460.398,8.4303 L462.471,14.3483 L464.62,8.4303 L466.524,8.4303 L466.524,16.0633 L465.182,16.0633 L465.182,11.6153 L465.243,10.1663 L465.161,10.1663 L462.926,16.0633 L461.824,16.0633 Z M455.475,16.0633 L454.175,16.0633 L454.175,9.5533 L451.96,9.5533 L451.96,8.4303 L457.711,8.4303 L457.711,9.5533 L455.475,9.5533 L455.475,16.0633 Z" id="Fill-26" fill="#041A25"></path>
            </g>
        </g>
    </g>
</svg>