<?xml version="1.0" encoding="UTF-8" standalone="no"?>
<svg width="1119px" height="261px" viewBox="0 0 1119 261" version="1.1" xmlns="http://www.w3.org/2000/svg" xmlns:xlink="http://www.w3.org/1999/xlink" xmlns:sketch="http://www.bohemiancoding.com/sketch/ns">
    <!-- Generator: Sketch 3.3.2 (12043) - http://www.bohemiancoding.com/sketch -->
    <title>Untitled-1 [Converted]</title>
    <desc>Created with Sketch.</desc>
    <defs></defs>
    <g id="Page-1" stroke="none" stroke-width="1" fill="none" fill-rule="evenodd" sketch:type="MSPage">
        <g id="Untitled-1-[Converted]" sketch:type="MSLayerGroup" fill="#7DB343">
            <path d="M229,112 L357,112 C358.2,115.6 358.1,121.9 358,127 C361.9,133.2 356.7,152.5 355,158 C354.3,162.3 353.7,166.7 353,171 C344.3,194.9 329.8,216 311,230 C295.9,241.2 280.7,250.9 260,257 C241.3,262.5 212.1,260.7 196,255 C191.3,254 186.7,253 182,252 C146.9,237.2 122.1,210.9 107,176 C97.4,153.8 98.5,115.7 106,93 C120.8,48.1 150.3,18.6 196,5 C244.9,-9.6 293,14.1 316,36 C324.1,43.7 336.3,52.5 340,64 C329.3,70 318.6,75.6 307,81 C302.8,83 300.8,86 295,87 C284.3,71.8 268.5,60.4 249,54 C213,42.2 179.3,66.4 166,85 C159.8,93.6 146.2,117.5 150,135 C156.4,164.5 165.6,184.1 187,198 C230.9,226.5 283.4,198.9 300,165 L230,165 C226,153.1 228.9,126.5 229,112 L229,112 Z" id="Shape" sketch:type="MSShapeGroup"></path>
            <path d="M680,2 C749.9,1.2 784.4,26.1 809,70 C820.1,89.8 831.2,124.6 823,157 C820.4,167.2 817.3,177.7 813,187 C795.7,224.7 761,248.7 716,259 C693.8,264.1 667.4,257.8 652,252 C612.2,236.9 584.4,209.2 571,168 C568,158.7 569.3,151.6 567,141 C563.7,125.9 567.6,102 572,90 C583.7,57.6 607.8,27.7 638,14 C645.6,10.6 654.5,7.5 662,5 C667.8,3.1 675.3,5 680,2 Z M688,52 C681.2,56.1 671.1,54.8 664,58 C643.2,67.2 626,86.9 619,110 C604.8,157.2 640.4,195.2 672,205 C680.1,207.5 695.2,212 708,209 C736.9,202.1 758.2,185.9 769,161 C792,107.8 749.9,62.8 711,53 C703.3,52.7 695.7,52.3 688,52 Z" id="Shape" sketch:type="MSShapeGroup"></path>
            <path d="M973,2 C1042.7,1.2 1081.1,27.8 1105,72 C1110.1,81.5 1113.3,94.2 1116,105 C1121.4,126.6 1117,154.6 1111,171 C1094.5,216.1 1064.2,245.9 1015,258 C996.2,262.6 970.3,259.9 955,255 C911.7,241 881.4,216.2 866,175 C857,151 856.4,110.9 866,87 C878.5,56 901.3,27.6 931,14 C938.5,10.6 947.5,7.5 955,5 C960.7,3.1 968.3,4.9 973,2 Z M981,52 C974.3,56.1 964,54.9 957,58 C937.8,66.4 921.9,84.1 914,104 C894.8,152.2 931.4,194.5 965,205 C972.9,207.5 988.2,212 1001,209 C1031.4,201.8 1052.1,184.6 1063,158 C1070.1,140.6 1066.9,114.1 1060,100 C1045.6,70.8 1025,51.6 981,52 Z" id="Shape" sketch:type="MSShapeGroup"></path>
            <path d="M0,5 L51,5 C53,11 52,21.3 52,29 L52,83 L52,256 L0,256 L0,5 L0,5 Z" id="Shape" sketch:type="MSShapeGroup"></path>
            <path d="M406,6 L458,6 L458,203 C464,205 474.4,204 482,204 L536,204 L536,256 L407,256 C405,250 406,239.7 406,232 L406,179 L406,6 L406,6 Z" id="Shape" sketch:type="MSShapeGroup"></path>
        </g>
    </g>
</svg>