<?xml version="1.0" encoding="UTF-8" standalone="no"?>
<svg width="950px" height="243px" viewBox="0 0 950 243" version="1.1" xmlns="http://www.w3.org/2000/svg" xmlns:xlink="http://www.w3.org/1999/xlink" xmlns:sketch="http://www.bohemiancoding.com/sketch/ns">
    <!-- Generator: Sketch 3.3.2 (12043) - http://www.bohemiancoding.com/sketch -->
    <title>bitHound_full_colour_cmyk</title>
    <desc>Created with Sketch.</desc>
    <defs></defs>
    <g id="Page-1" stroke="none" stroke-width="1" fill="none" fill-rule="evenodd" sketch:type="MSPage">
        <g id="bitHound_full_colour_cmyk" sketch:type="MSLayerGroup">
            <g id="Fill-1-+-Fill-2" fill="#C4122F" sketch:type="MSShapeGroup">
                <path d="M220.676983,111.564801 C219.724179,102.115298 217.611971,92.4445379 214.594439,83.4516195 C205.934514,57.7006537 189.856197,31.2814379 169.478393,13.018709 C168.609,12.2385511 165.168642,10.2031063 163.90722,10.8950169 C160.566954,12.7360616 166.866364,25.4935616 167.640156,27.7937484 C172.375301,41.8378695 175.408231,56.7388853 171.983913,71.4518958 C167.456012,90.91108 152.493468,104.484548 132.499994,106.166364 C121.555266,107.086567 110.523277,105.841512 99.5246532,107.115983 C83.1300173,109.02737 66.3632428,114.647704 55.9209017,128.105427 C54.7281329,129.64592 53.6386647,131.350756 52.6165665,133.142562 C52.5331561,133.152154 52.4709191,133.141283 52.378526,133.152154 C48.3234971,133.586356 44.3165896,131.866172 42.2800925,130.796972 C41.7648728,130.506012 41.2740347,130.22848 40.8704566,130.002746 C28.6803468,123.259496 19.6752312,108.26128 14.2015838,95.8458984 C11.6800231,90.1219695 9.58706358,84.0859774 8.21271676,77.9802827 C7.59740462,75.2542063 7.47549711,72.3273353 7.3606474,69.5488221 C7.29263584,67.7941063 7.55954913,65.4107879 6.57209827,63.842159 C4.46694798,60.4938748 1.73750289,63.6918827 1.31210983,66.3763932 C0.620445087,70.7714958 -0.0384971098,75.1346248 0.157196532,79.5955932 C0.497895954,87.1650432 2.60112139,94.59253 5.31131792,101.62802 C9.30154335,112.004759 14.8746416,121.546985 22.1287803,129.993793 C25.1225723,133.480204 28.367237,136.75303 31.8018208,139.809075 C34.902763,142.568404 38.7999538,144.706804 41.1309538,148.227106 C43.7943121,152.245559 44.2505029,157.244325 44.0163121,161.932306 C43.3990751,174.286938 43.0102543,185.843506 46.5070751,197.84387 C49.6112254,208.494943 53.4404046,219.48302 59.8771214,228.629412 C63.0621156,233.154327 67.0754393,237.952938 71.4551272,241.386912 C74.4014393,243.691575 79.9777457,243.949922 76.754896,235.476896 C69.6387052,216.727527 68.9650058,197.319501 80.093237,179.804317 C89.3710405,165.206412 105.790699,152.245559 124.374538,154.554059 C151.639474,157.947746 170.627532,182.895533 169.282699,209.557748 C168.900295,217.059414 168.635306,223.440722 166.255543,230.47877 C165.305948,233.287338 164.600168,236.853683 165.283491,239.783112 C166.451237,244.786354 172.042942,242.947227 174.461202,239.657775 C181.047416,230.701306 188.024376,222.027485 194.237168,212.80052 C214.476382,182.745256 224.352815,147.826796 220.676983,111.564801" id="Fill-1"></path>
                <path d="M67.9409827,38.1129353 C68.3869075,39.5568669 68.8437399,41.1536327 69.1574913,42.8878853 C69.1914971,43.61113 69.423763,44.3490827 69.7933353,45.0902327 C71.4737341,49.4213879 75.4986069,51.7810458 79.2924971,54.0230406 C81.6241387,55.4030248 85.7696358,56.7727774 88.3213526,57.7690774 C91.6629017,59.0812774 98.8573699,57.4032984 102.243832,57.1347195 C110.04463,56.5137906 117.322509,53.7416721 124.519543,57.8969721 C87.7041156,100.951456 122.443266,110.554433 149.444497,89.7894432 C180.215237,66.1276379 151.250653,10.3303616 151.250653,10.3303616 C151.250653,10.3303616 150.578237,5.98258003 138.943127,3.41317477 C137.856225,2.86258792 136.751358,2.34845108 135.654832,1.84902213 C124.094792,-3.4816305 113.698647,5.26764845 105.343491,12.3236011 C102.934855,14.3558484 100.531353,16.4469274 97.9937514,18.3263406 C94.5007803,20.91493 90.8217399,23.0149616 86.8873353,24.8604827 C82.7854682,26.7904142 77.9078844,28.9281748 73.3767746,29.1360037 C72.7037168,29.1666984 71.5199306,29.2658169 70.2354104,29.5299195 C68.2605087,29.6910669 67.2230116,30.2295037 66.7790116,31.1023853 C66.0154855,31.7610432 65.5028324,32.6236932 65.6119075,33.7638748 C65.7639711,35.3881379 66.5056821,36.7188827 67.3134798,37.7202984 C67.5245723,37.8686563 67.7324566,37.9971906 67.9409827,38.1129353" id="Fill-2"></path>
            </g>
            <g id="Group" transform="translate(302.000000, 55.000000)" sketch:type="MSShapeGroup">
                <path d="M16.732,119.116 C19.144,119.753 21.558,120.23 23.972,120.544 C26.383,120.863 28.668,121.021 30.83,121.021 C39.593,121.021 46.451,118.323 51.404,112.925 C56.357,107.529 58.833,99.431 58.833,88.636 C58.833,84.064 58.387,79.777 57.499,75.777 C56.61,71.777 55.214,68.347 53.309,65.49 C51.404,62.632 48.957,60.378 45.975,58.728 C42.989,57.077 39.402,56.251 35.211,56.251 C31.526,56.251 27.972,56.984 24.543,58.441 C21.114,59.904 18.51,61.46 16.732,63.109 L16.732,119.116 L16.732,119.116 Z M16.732,47.679 C18.638,46.534 21.4,45.363 25.02,44.154 C28.639,42.948 32.669,42.345 37.116,42.345 C43.084,42.345 48.418,43.488 53.118,45.773 C57.815,48.06 61.786,51.235 65.024,55.298 C68.263,59.365 70.739,64.222 72.454,69.872 C74.168,75.525 75.026,81.779 75.026,88.636 C75.026,95.749 74.008,102.161 71.978,107.876 C69.945,113.591 67.087,118.448 63.405,122.45 C59.72,126.45 55.276,129.531 50.07,131.689 C44.861,133.847 39.083,134.927 32.735,134.927 C25.748,134.927 19.524,134.419 14.065,133.404 C8.604,132.388 4.222,131.372 0.921,130.355 L0.921,3.482 L16.732,0.816 L16.732,47.679 L16.732,47.679 Z" id="Fill-3" fill="#C4122F"></path>
                <path d="M110.078,30.724 C106.774,30.724 103.917,29.581 101.505,27.294 C99.091,25.009 97.886,21.898 97.886,17.96 C97.886,14.025 99.091,10.911 101.505,8.626 C103.917,6.339 106.774,5.197 110.078,5.197 C113.507,5.197 116.394,6.339 118.746,8.626 C121.094,10.911 122.27,14.025 122.27,17.96 C122.27,21.898 121.094,25.009 118.746,27.294 C116.394,29.581 113.507,30.724 110.078,30.724 L110.078,30.724 Z M106.077,57.583 L80.55,57.583 L80.55,44.439 L121.698,44.439 L121.698,98.732 C121.698,107.495 122.904,113.37 125.318,116.353 C127.729,119.339 131.348,120.829 136.176,120.829 C139.858,120.829 143.255,120.386 146.368,119.497 C149.478,118.61 151.922,117.657 153.703,116.64 L155.988,129.974 C155.227,130.355 154.146,130.831 152.75,131.404 C151.351,131.974 149.731,132.517 147.892,133.023 C146.05,133.529 144.017,133.974 141.796,134.357 C139.573,134.738 137.254,134.927 134.843,134.927 C129.253,134.927 124.618,134.165 120.936,132.642 C117.251,131.116 114.298,128.831 112.078,125.782 C109.854,122.735 108.298,118.958 107.411,114.448 C106.521,109.943 106.077,104.702 106.077,98.732 L106.077,57.583 L106.077,57.583 Z" id="Fill-4" fill="#C4122F"></path>
                <path d="M179.42,44.439 L216.758,44.439 L216.758,57.583 L179.42,57.583 L179.42,98.732 C179.42,103.179 179.735,106.798 180.373,109.591 C181.006,112.386 182.054,114.64 183.516,116.353 C184.974,118.068 186.85,119.243 189.136,119.878 C191.421,120.515 194.213,120.829 197.518,120.829 C202.09,120.829 205.771,120.448 208.566,119.687 C211.359,118.925 214.026,117.909 216.568,116.64 L218.853,129.974 C217.074,130.735 214.249,131.755 210.376,133.023 C206.501,134.29 201.708,134.927 195.994,134.927 C189.389,134.927 183.992,134.165 179.801,132.642 C175.61,131.116 172.339,128.831 169.99,125.782 C167.639,122.735 166.02,118.958 165.132,114.448 C164.243,109.943 163.799,104.702 163.799,98.732 L163.799,57.583 L145.13,57.583 L145.13,44.439 L163.799,44.439 L163.799,19.675 L179.42,17.007 L179.42,44.439" id="Fill-5" fill="#C4122F"></path>
                <path d="M295.625,14.911 L311.247,14.911 L311.247,132.831 L295.625,132.831 L295.625,77.968 L248.762,77.968 L248.762,132.831 L233.142,132.831 L233.142,14.911 L248.762,14.911 L248.762,64.632 L295.625,64.632 L295.625,14.911" id="Fill-6" fill="#5F5F61"></path>
                <path d="M386.494,88.636 C386.494,78.605 384.333,70.698 380.018,64.919 C375.698,59.14 369.855,56.251 362.491,56.251 C355.252,56.251 349.505,59.14 345.251,64.919 C340.994,70.698 338.869,78.605 338.869,88.636 C338.869,98.542 340.994,106.384 345.251,112.163 C349.505,117.943 355.252,120.829 362.491,120.829 C369.855,120.829 375.698,117.943 380.018,112.163 C384.333,106.384 386.494,98.542 386.494,88.636 L386.494,88.636 Z M402.686,88.636 C402.686,95.622 401.701,101.941 399.734,107.591 C397.764,113.243 395.001,118.101 391.447,122.163 C387.891,126.23 383.637,129.372 378.684,131.593 C373.73,133.814 368.331,134.927 362.491,134.927 C356.776,134.927 351.472,133.814 346.585,131.593 C341.694,129.372 337.471,126.23 333.916,122.163 C330.359,118.101 327.598,113.243 325.629,107.591 C323.659,101.941 322.677,95.622 322.677,88.636 C322.677,81.654 323.659,75.3 325.629,69.585 C327.598,63.87 330.359,59.013 333.916,55.013 C337.471,51.011 341.694,47.902 346.585,45.677 C351.472,43.458 356.776,42.345 362.491,42.345 C368.331,42.345 373.73,43.458 378.684,45.677 C383.637,47.902 387.891,51.011 391.447,55.013 C395.001,59.013 397.764,63.87 399.734,69.585 C401.701,75.3 402.686,81.654 402.686,88.636 L402.686,88.636 Z" id="Fill-7" fill="#5F5F61"></path>
                <path d="M481.554,130.355 C478.125,131.245 473.583,132.198 467.933,133.212 C462.28,134.228 455.646,134.738 448.025,134.738 C441.293,134.738 435.706,133.751 431.262,131.784 C426.815,129.816 423.195,127.021 420.403,123.402 C417.608,119.782 415.641,115.495 414.498,110.544 C413.354,105.591 412.783,100.132 412.783,94.159 L412.783,44.439 L428.404,44.439 L428.404,90.732 C428.404,101.656 430.023,109.4 433.262,113.972 C436.5,118.544 441.93,120.829 449.55,120.829 C451.199,120.829 452.884,120.767 454.598,120.64 C456.313,120.515 457.932,120.355 459.456,120.163 C460.979,119.974 462.313,119.782 463.456,119.591 C464.6,119.402 465.361,119.243 465.742,119.116 L465.742,44.439 L481.554,44.439 L481.554,130.355" id="Fill-8" fill="#5F5F61"></path>
                <path d="M492.983,46.915 C498.698,45.521 504.381,44.439 510.033,43.677 C515.683,42.915 520.987,42.534 525.94,42.534 C537.751,42.534 546.672,45.583 552.705,51.679 C558.736,57.775 561.754,67.556 561.754,81.015 L561.754,132.831 L546.133,132.831 L546.133,83.872 C546.133,78.157 545.624,73.523 544.609,69.966 C543.591,66.413 542.162,63.65 540.323,61.679 C538.48,59.712 536.257,58.347 533.655,57.583 C531.051,56.821 528.227,56.441 525.178,56.441 C522.636,56.441 519.939,56.603 517.082,56.917 C514.225,57.235 511.462,57.65 508.795,58.156 L508.795,132.831 L492.983,132.831 L492.983,46.915" id="Fill-9" fill="#5F5F61"></path>
                <path d="M631.668,63.109 C629.888,61.46 627.286,59.904 623.857,58.441 C620.429,56.984 616.871,56.251 613.189,56.251 C608.998,56.251 605.409,57.077 602.426,58.728 C599.44,60.378 596.997,62.632 595.092,65.49 C593.186,68.347 591.788,71.777 590.901,75.777 C590.011,79.777 589.567,84.064 589.567,88.636 C589.567,98.923 591.978,106.86 596.807,112.448 C601.632,118.038 607.918,120.829 615.666,120.829 C619.601,120.829 622.935,120.64 625.667,120.259 C628.396,119.878 630.397,119.497 631.668,119.116 L631.668,63.109 L631.668,63.109 Z M631.668,3.482 L647.479,0.816 L647.479,130.355 C644.051,131.372 639.669,132.388 634.335,133.404 C629.001,134.419 622.777,134.927 615.666,134.927 C609.314,134.927 603.536,133.847 598.33,131.689 C593.121,129.531 588.678,126.45 584.995,122.45 C581.31,118.448 578.453,113.591 576.423,107.876 C574.39,102.161 573.375,95.749 573.375,88.636 C573.375,81.779 574.232,75.525 575.946,69.872 C577.661,64.222 580.167,59.365 583.472,55.298 C586.772,51.235 590.74,48.06 595.378,45.773 C600.013,43.488 605.313,42.345 611.284,42.345 C615.981,42.345 620.11,42.915 623.667,44.058 C627.221,45.202 629.888,46.409 631.668,47.679 L631.668,3.482 L631.668,3.482 Z" id="Fill-10" fill="#5F5F61"></path>
            </g>
        </g>
    </g>
</svg>