<?xml version="1.0" encoding="UTF-8" standalone="no"?>
<svg width="201px" height="43px" viewBox="0 0 201 43" version="1.1" xmlns="http://www.w3.org/2000/svg" xmlns:xlink="http://www.w3.org/1999/xlink" xmlns:sketch="http://www.bohemiancoding.com/sketch/ns">
    <!-- Generator: Sketch 3.3.2 (12043) - http://www.bohemiancoding.com/sketch -->
    <title>full color logo copy</title>
    <desc>Created with Sketch.</desc>
    <defs>
        <path id="path-1" d="M43.245,21.494 C43.245,33.308 33.668,42.888 21.852,42.888 C10.037,42.888 0.46,33.308 0.46,21.494 C0.46,9.68 10.037,0.102 21.852,0.102 C33.668,0.102 43.245,9.68 43.245,21.494"></path>
    </defs>
    <g id="Page-1" stroke="none" stroke-width="1" fill="none" fill-rule="evenodd" sketch:type="MSPage">
        <g id="full-color-logo-copy" sketch:type="MSLayerGroup">
            <path d="M43.245,21.494 C43.245,33.308 33.668,42.888 21.852,42.888 C10.037,42.888 0.46,33.308 0.46,21.494 C0.46,9.68 10.037,0.102 21.852,0.102 C33.668,0.102 43.245,9.68 43.245,21.494" id="Fill-1" fill="#E9822C" sketch:type="MSShapeGroup"></path>
            <g id="Group-4">
                <mask id="mask-2" sketch:name="Clip 3" fill="white">
                    <use xlink:href="#path-1"></use>
                </mask>
                <g id="Clip-3"></g>
                <path d="M55.347,43.789 L35.048,60.823 L12.464,33.91 L13.841,33.394 L12.642,32.852 L29.689,18.549 L30.9,20.417 L35.73,20.411 L55.347,43.789" id="Fill-2" fill="#CB722E" sketch:type="MSShapeGroup" mask="url(#mask-2)"></path>
            </g>
            <path d="M35.928,32.709 L29.985,37.696 L12.094,16.374 L12.79,16.204 L12.176,15.942 L17.858,11.173 L35.928,32.709" id="Fill-5" fill="#CB722E" sketch:type="MSShapeGroup"></path>
            <path d="M12.02,29.778 C12.02,28.727 12.022,27.674 12.017,26.62 C12.017,26.499 12.055,26.436 12.163,26.377 C14.92,24.866 17.676,23.352 20.432,21.837 C20.798,21.635 20.896,21.271 20.657,20.996 C20.596,20.925 20.512,20.871 20.43,20.826 C17.68,19.361 14.93,17.898 12.178,16.439 C12.085,16.389 12.048,16.336 12.048,16.23 C12.062,14.201 12.073,12.172 12.084,10.144 C12.085,9.767 12.162,9.415 12.399,9.11 C12.86,8.513 13.646,8.331 14.326,8.687 C15.148,9.116 15.96,9.563 16.775,10.003 C22.886,13.301 28.996,16.597 35.107,19.892 C35.506,20.106 35.801,20.4 35.921,20.842 C36.078,21.417 35.863,22.005 35.333,22.352 C34.918,22.624 34.476,22.855 34.042,23.097 C27.472,26.76 20.902,30.421 14.332,34.082 C13.573,34.506 12.687,34.321 12.248,33.65 C12.095,33.415 12.017,33.16 12.017,32.881 L12.017,29.778 L12.02,29.778" id="Fill-6" fill="#FFFFFF" sketch:type="MSShapeGroup"></path>
            <path d="M45.966,11.066 L47.183,11.066 C47.323,11.066 47.439,11.104 47.529,11.179 C47.619,11.254 47.689,11.352 47.739,11.472 L54.981,29.114 C55.171,29.573 55.327,30.063 55.447,30.584 C55.557,30.044 55.703,29.554 55.883,29.114 L63.111,11.472 C63.161,11.362 63.233,11.267 63.329,11.186 C63.424,11.107 63.542,11.066 63.681,11.066 L64.884,11.066 L56.108,32.326 L54.741,32.326 L45.966,11.066" id="Fill-7" fill="#E9812D" sketch:type="MSShapeGroup"></path>
            <path d="M67.212,17.377 L68.639,17.377 L68.639,32.326 L67.212,32.326 L67.212,17.377 Z M69.271,12.224 C69.271,12.403 69.233,12.572 69.158,12.727 C69.083,12.882 68.985,13.02 68.865,13.141 C68.745,13.26 68.604,13.355 68.444,13.425 C68.284,13.496 68.113,13.53 67.934,13.53 C67.753,13.53 67.583,13.496 67.422,13.425 C67.262,13.355 67.122,13.26 67.002,13.141 C66.881,13.02 66.787,12.882 66.716,12.727 C66.646,12.572 66.611,12.403 66.611,12.224 C66.611,12.043 66.646,11.871 66.716,11.706 C66.787,11.54 66.881,11.397 67.002,11.277 C67.122,11.157 67.262,11.061 67.422,10.992 C67.583,10.921 67.753,10.886 67.934,10.886 C68.113,10.886 68.284,10.921 68.444,10.992 C68.604,11.061 68.745,11.157 68.865,11.277 C68.985,11.397 69.083,11.54 69.158,11.706 C69.233,11.871 69.271,12.043 69.271,12.224 L69.271,12.224 Z" id="Fill-8" fill="#E9812D" sketch:type="MSShapeGroup"></path>
            <path d="M78.293,31.366 C79.287,31.366 80.185,31.111 80.987,30.6 C81.789,30.089 82.507,29.377 83.139,28.467 L83.139,20.578 C82.557,19.727 81.917,19.125 81.22,18.774 C80.522,18.424 79.732,18.248 78.85,18.248 C77.967,18.248 77.194,18.41 76.532,18.729 C75.87,19.05 75.316,19.504 74.87,20.09 C74.423,20.676 74.087,21.376 73.861,22.193 C73.636,23.009 73.523,23.909 73.523,24.891 C73.523,27.115 73.934,28.749 74.756,29.797 C75.579,30.843 76.757,31.366 78.293,31.366 L78.293,31.366 Z M83.78,32.326 C83.532,32.326 83.39,32.197 83.35,31.937 L83.198,29.579 C82.536,30.479 81.762,31.195 80.874,31.727 C79.986,32.256 78.991,32.523 77.887,32.523 C76.052,32.523 74.62,31.887 73.592,30.615 C72.564,29.342 72.05,27.436 72.05,24.891 C72.05,23.799 72.193,22.779 72.479,21.833 C72.765,20.886 73.186,20.065 73.743,19.368 C74.3,18.672 74.981,18.123 75.789,17.723 C76.596,17.322 77.527,17.122 78.58,17.122 C79.593,17.122 80.471,17.31 81.212,17.685 C81.956,18.061 82.597,18.609 83.139,19.331 L83.139,10.465 L84.566,10.465 L84.566,32.326 L83.78,32.326 L83.78,32.326 Z" id="Fill-9" fill="#E9812D" sketch:type="MSShapeGroup"></path>
            <path d="M94.491,18.204 C93.72,18.204 93.03,18.324 92.42,18.564 C91.81,18.805 91.282,19.15 90.837,19.601 C90.392,20.052 90.032,20.593 89.757,21.224 C89.482,21.855 89.299,22.561 89.209,23.343 L99.051,23.343 C99.051,22.541 98.941,21.823 98.721,21.187 C98.5,20.55 98.191,20.012 97.791,19.571 C97.391,19.13 96.911,18.792 96.351,18.557 C95.791,18.322 95.17,18.204 94.491,18.204 L94.491,18.204 Z M94.468,17.137 C95.31,17.137 96.089,17.282 96.805,17.572 C97.521,17.863 98.142,18.287 98.668,18.843 C99.193,19.398 99.604,20.082 99.9,20.894 C100.195,21.705 100.343,22.636 100.343,23.688 C100.343,23.909 100.311,24.059 100.246,24.14 C100.181,24.22 100.078,24.259 99.938,24.259 L89.149,24.259 L89.149,24.544 C89.149,25.666 89.279,26.654 89.54,27.506 C89.8,28.355 90.17,29.069 90.652,29.647 C91.133,30.223 91.713,30.656 92.395,30.946 C93.076,31.237 93.837,31.382 94.678,31.382 C95.43,31.382 96.081,31.3 96.632,31.133 C97.182,30.968 97.646,30.784 98.021,30.578 C98.397,30.374 98.695,30.187 98.916,30.022 C99.137,29.857 99.296,29.773 99.397,29.773 C99.526,29.773 99.627,29.824 99.697,29.925 L100.088,30.405 C99.847,30.705 99.529,30.985 99.134,31.247 C98.738,31.508 98.297,31.729 97.812,31.916 C97.326,32.1 96.805,32.248 96.249,32.359 C95.693,32.469 95.134,32.523 94.573,32.523 C93.552,32.523 92.62,32.346 91.779,31.99 C90.938,31.635 90.215,31.117 89.612,30.435 C89.01,29.754 88.543,28.92 88.215,27.934 C87.886,26.946 87.722,25.816 87.722,24.544 C87.722,23.473 87.875,22.484 88.18,21.577 C88.485,20.67 88.926,19.889 89.502,19.233 C90.079,18.577 90.784,18.063 91.621,17.693 C92.457,17.322 93.406,17.137 94.468,17.137 L94.468,17.137 Z" id="Fill-10" fill="#E9812D" sketch:type="MSShapeGroup"></path>
            <path d="M109.132,31.397 C110.025,31.397 110.803,31.245 111.469,30.938 C112.135,30.633 112.691,30.195 113.137,29.624 C113.582,29.054 113.917,28.363 114.137,27.559 C114.357,26.753 114.467,25.848 114.467,24.845 C114.467,23.853 114.357,22.953 114.137,22.141 C113.917,21.329 113.582,20.636 113.137,20.06 C112.691,19.483 112.135,19.04 111.469,18.729 C110.803,18.419 110.025,18.264 109.132,18.264 C108.242,18.264 107.462,18.419 106.795,18.729 C106.129,19.04 105.574,19.483 105.129,20.06 C104.683,20.636 104.347,21.329 104.122,22.141 C103.896,22.953 103.784,23.853 103.784,24.845 C103.784,25.848 103.896,26.753 104.122,27.559 C104.347,28.363 104.683,29.054 105.129,29.624 C105.574,30.195 106.129,30.633 106.795,30.938 C107.462,31.245 108.242,31.397 109.132,31.397 L109.132,31.397 Z M109.132,17.137 C110.204,17.137 111.165,17.319 112.009,17.685 C112.856,18.051 113.571,18.569 114.153,19.24 C114.732,19.912 115.175,20.721 115.481,21.667 C115.787,22.613 115.94,23.672 115.94,24.845 C115.94,26.017 115.787,27.074 115.481,28.016 C115.175,28.957 114.732,29.764 114.153,30.435 C113.571,31.105 112.856,31.623 112.009,31.982 C111.165,32.342 110.204,32.523 109.132,32.523 C108.062,32.523 107.102,32.342 106.255,31.982 C105.41,31.623 104.694,31.105 104.107,30.435 C103.52,29.764 103.076,28.957 102.769,28.016 C102.464,27.074 102.311,26.017 102.311,24.845 C102.311,23.672 102.464,22.613 102.769,21.667 C103.076,20.721 103.52,19.912 104.107,19.24 C104.694,18.569 105.41,18.051 106.255,17.685 C107.102,17.319 108.062,17.137 109.132,17.137 L109.132,17.137 Z" id="Fill-11" fill="#E9812D" sketch:type="MSShapeGroup"></path>
            <path d="M127.178,19.24 C127.109,19.381 126.998,19.451 126.847,19.451 C126.738,19.451 126.594,19.388 126.419,19.263 C126.245,19.138 126.013,18.998 125.728,18.843 C125.443,18.687 125.093,18.547 124.676,18.421 C124.261,18.297 123.752,18.234 123.151,18.234 C122.61,18.234 122.117,18.311 121.671,18.466 C121.224,18.622 120.845,18.829 120.529,19.088 C120.213,19.348 119.968,19.65 119.793,19.995 C119.617,20.339 119.53,20.702 119.53,21.081 C119.53,21.551 119.65,21.94 119.891,22.25 C120.13,22.561 120.448,22.825 120.837,23.045 C121.227,23.264 121.671,23.454 122.168,23.614 C122.663,23.774 123.17,23.933 123.691,24.093 C124.213,24.253 124.721,24.432 125.217,24.627 C125.713,24.823 126.156,25.066 126.546,25.357 C126.939,25.646 127.253,26.003 127.494,26.423 C127.734,26.845 127.855,27.354 127.855,27.955 C127.855,28.608 127.736,29.213 127.501,29.773 C127.265,30.335 126.925,30.821 126.479,31.231 C126.034,31.643 125.485,31.967 124.834,32.207 C124.183,32.449 123.442,32.568 122.61,32.568 C121.559,32.568 120.652,32.4 119.891,32.066 C119.129,31.729 118.448,31.292 117.846,30.75 L118.194,30.24 C118.242,30.16 118.297,30.099 118.359,30.06 C118.417,30.019 118.503,29.999 118.614,29.999 C118.744,29.999 118.904,30.079 119.094,30.24 C119.285,30.399 119.532,30.572 119.838,30.758 C120.144,30.944 120.524,31.117 120.98,31.276 C121.436,31.436 122,31.518 122.67,31.518 C123.302,31.518 123.858,31.429 124.337,31.255 C124.818,31.078 125.22,30.841 125.541,30.54 C125.86,30.24 126.103,29.888 126.27,29.481 C126.434,29.075 126.517,28.647 126.517,28.196 C126.517,27.696 126.397,27.28 126.156,26.948 C125.916,26.617 125.601,26.339 125.21,26.109 C124.818,25.878 124.375,25.682 123.88,25.521 C123.384,25.361 122.874,25.2 122.346,25.04 C121.821,24.88 121.311,24.705 120.815,24.515 C120.319,24.325 119.875,24.083 119.485,23.793 C119.094,23.502 118.779,23.15 118.538,22.733 C118.297,22.319 118.178,21.8 118.178,21.178 C118.178,20.648 118.292,20.137 118.523,19.646 C118.754,19.155 119.082,18.725 119.507,18.354 C119.934,17.984 120.452,17.687 121.063,17.467 C121.673,17.247 122.359,17.137 123.122,17.137 C124.034,17.137 124.841,17.269 125.548,17.533 C126.254,17.797 126.903,18.201 127.494,18.745 L127.178,19.24" id="Fill-12" fill="#E9812D" sketch:type="MSShapeGroup"></path>
            <path d="M135.186,32.568 C134.174,32.568 133.389,32.287 132.827,31.727 C132.266,31.166 131.986,30.301 131.986,29.128 L131.986,18.91 L129.838,18.91 C129.727,18.91 129.637,18.88 129.568,18.819 C129.496,18.759 129.461,18.675 129.461,18.564 L129.461,18.008 L132.015,17.829 L132.373,12.479 C132.382,12.389 132.419,12.308 132.485,12.238 C132.548,12.168 132.635,12.133 132.746,12.133 L133.414,12.133 L133.414,17.843 L138.117,17.843 L138.117,18.91 L133.414,18.91 L133.414,29.054 C133.414,29.464 133.465,29.816 133.57,30.111 C133.676,30.407 133.822,30.65 134.006,30.841 C134.192,31.033 134.41,31.17 134.66,31.263 C134.911,31.351 135.182,31.397 135.473,31.397 C135.832,31.397 136.143,31.345 136.403,31.239 C136.665,31.133 136.89,31.019 137.08,30.894 C137.271,30.768 137.425,30.652 137.544,30.548 C137.667,30.442 137.76,30.392 137.831,30.392 C137.912,30.392 137.991,30.44 138.07,30.54 L138.462,31.17 C138.082,31.592 137.597,31.932 137.012,32.186 C136.425,32.441 135.817,32.568 135.186,32.568" id="Fill-13" fill="#E9812D" sketch:type="MSShapeGroup"></path>
            <path d="M141.077,32.326 L141.077,17.377 L141.828,17.377 C141.998,17.377 142.123,17.413 142.196,17.483 C142.271,17.552 142.313,17.673 142.324,17.843 L142.445,20.999 C142.924,19.787 143.566,18.838 144.369,18.151 C145.167,17.465 146.156,17.122 147.329,17.122 C147.779,17.122 148.194,17.17 148.574,17.265 C148.956,17.359 149.316,17.498 149.657,17.678 L149.461,18.67 C149.431,18.83 149.332,18.91 149.161,18.91 C149.102,18.91 149.015,18.89 148.906,18.85 C148.794,18.81 148.658,18.765 148.493,18.714 C148.327,18.665 148.124,18.62 147.883,18.579 C147.643,18.54 147.369,18.519 147.056,18.519 C145.925,18.519 144.997,18.87 144.27,19.571 C143.543,20.272 142.955,21.284 142.504,22.606 L142.504,32.326 L141.077,32.326" id="Fill-14" fill="#E9812D" sketch:type="MSShapeGroup"></path>
            <path d="M157.913,18.204 C157.142,18.204 156.452,18.324 155.842,18.564 C155.232,18.805 154.705,19.15 154.259,19.601 C153.814,20.052 153.454,20.593 153.179,21.224 C152.905,21.855 152.721,22.561 152.63,23.343 L162.473,23.343 C162.473,22.541 162.363,21.823 162.144,21.187 C161.923,20.55 161.612,20.012 161.214,19.571 C160.813,19.13 160.333,18.792 159.772,18.557 C159.212,18.322 158.592,18.204 157.913,18.204 L157.913,18.204 Z M157.89,17.137 C158.733,17.137 159.511,17.282 160.226,17.572 C160.942,17.863 161.564,18.287 162.089,18.843 C162.616,19.398 163.028,20.082 163.322,20.894 C163.618,21.705 163.765,22.636 163.765,23.688 C163.765,23.909 163.732,24.059 163.668,24.14 C163.603,24.22 163.5,24.259 163.361,24.259 L152.571,24.259 L152.571,24.544 C152.571,25.666 152.701,26.654 152.962,27.506 C153.222,28.355 153.594,29.069 154.074,29.647 C154.554,30.223 155.136,30.656 155.818,30.946 C156.499,31.237 157.26,31.382 158.101,31.382 C158.852,31.382 159.503,31.3 160.054,31.133 C160.605,30.968 161.069,30.784 161.444,30.578 C161.82,30.374 162.118,30.187 162.338,30.022 C162.558,29.857 162.717,29.773 162.819,29.773 C162.949,29.773 163.049,29.824 163.12,29.925 L163.51,30.405 C163.27,30.705 162.951,30.985 162.555,31.247 C162.161,31.508 161.719,31.729 161.234,31.916 C160.748,32.1 160.226,32.248 159.671,32.359 C159.115,32.469 158.556,32.523 157.996,32.523 C156.974,32.523 156.042,32.346 155.201,31.99 C154.36,31.635 153.637,31.117 153.035,30.435 C152.432,29.754 151.966,28.92 151.637,27.934 C151.308,26.946 151.144,25.816 151.144,24.544 C151.144,23.473 151.296,22.484 151.602,21.577 C151.909,20.67 152.348,19.889 152.924,19.233 C153.5,18.577 154.207,18.063 155.042,17.693 C155.879,17.322 156.829,17.137 157.89,17.137 L157.89,17.137 Z" id="Fill-15" fill="#E9812D" sketch:type="MSShapeGroup"></path>
            <path d="M170.391,31.533 C170.972,31.533 171.505,31.471 171.992,31.345 C172.477,31.219 172.928,31.045 173.344,30.819 C173.758,30.592 174.148,30.327 174.508,30.015 C174.869,29.705 175.225,29.367 175.575,29.009 L175.575,25.116 C174.153,25.156 172.928,25.264 171.901,25.438 C170.875,25.614 170.029,25.852 169.363,26.152 C168.696,26.452 168.206,26.811 167.889,27.227 C167.575,27.644 167.416,28.116 167.416,28.647 C167.416,29.147 167.5,29.581 167.665,29.946 C167.83,30.312 168.048,30.613 168.318,30.849 C168.587,31.086 168.905,31.257 169.264,31.366 C169.625,31.479 170,31.533 170.391,31.533 L170.391,31.533 Z M176.402,32.326 C176.101,32.326 175.917,32.187 175.846,31.908 L175.635,29.999 C175.225,30.399 174.816,30.762 174.411,31.082 C174.006,31.401 173.583,31.673 173.141,31.891 C172.701,32.113 172.225,32.279 171.713,32.396 C171.203,32.512 170.642,32.568 170.032,32.568 C169.521,32.568 169.023,32.494 168.542,32.342 C168.062,32.193 167.636,31.963 167.265,31.652 C166.895,31.341 166.598,30.944 166.373,30.458 C166.146,29.972 166.033,29.389 166.033,28.708 C166.033,28.076 166.214,27.49 166.575,26.948 C166.935,26.409 167.5,25.938 168.266,25.537 C169.031,25.136 170.019,24.815 171.225,24.575 C172.433,24.334 173.882,24.194 175.575,24.154 L175.575,22.591 C175.575,21.209 175.278,20.145 174.682,19.398 C174.085,18.652 173.202,18.279 172.029,18.279 C171.308,18.279 170.694,18.38 170.189,18.579 C169.682,18.78 169.254,19 168.905,19.24 C168.553,19.48 168.267,19.701 168.048,19.901 C167.827,20.102 167.641,20.202 167.492,20.202 C167.291,20.202 167.141,20.112 167.041,19.932 L166.785,19.496 C167.567,18.714 168.387,18.123 169.249,17.723 C170.111,17.322 171.088,17.122 172.179,17.122 C172.981,17.122 173.682,17.249 174.283,17.505 C174.884,17.76 175.382,18.125 175.778,18.602 C176.173,19.078 176.472,19.653 176.671,20.33 C176.873,21.006 176.973,21.76 176.973,22.591 L176.973,32.326 L176.402,32.326 L176.402,32.326 Z" id="Fill-16" fill="#E9812D" sketch:type="MSShapeGroup"></path>
            <path d="M180.728,32.326 L180.728,17.377 L181.509,17.377 C181.769,17.377 181.92,17.503 181.96,17.753 L182.097,19.916 C182.386,19.506 182.697,19.13 183.028,18.79 C183.358,18.449 183.711,18.156 184.088,17.911 C184.462,17.665 184.863,17.475 185.289,17.339 C185.715,17.205 186.163,17.137 186.633,17.137 C187.726,17.137 188.597,17.455 189.25,18.091 C189.899,18.727 190.339,19.611 190.57,20.743 C190.75,20.122 191.002,19.585 191.329,19.135 C191.654,18.685 192.025,18.311 192.446,18.016 C192.866,17.721 193.324,17.5 193.818,17.354 C194.313,17.21 194.821,17.137 195.34,17.137 C196.082,17.137 196.747,17.259 197.336,17.505 C197.927,17.75 198.429,18.113 198.844,18.594 C199.259,19.075 199.577,19.666 199.797,20.367 C200.017,21.069 200.126,21.87 200.126,22.772 L200.126,32.326 L198.7,32.326 L198.7,22.772 C198.7,21.31 198.383,20.194 197.751,19.428 C197.123,18.662 196.221,18.279 195.048,18.279 C194.528,18.279 194.028,18.374 193.552,18.564 C193.078,18.754 192.657,19.037 192.291,19.414 C191.924,19.789 191.635,20.257 191.419,20.818 C191.203,21.379 191.097,22.03 191.097,22.772 L191.097,32.326 L189.669,32.326 L189.669,22.772 C189.669,21.319 189.378,20.207 188.796,19.436 C188.216,18.665 187.371,18.279 186.258,18.279 C185.447,18.279 184.695,18.521 184.004,19.007 C183.313,19.493 182.697,20.166 182.156,21.029 L182.156,32.326 L180.728,32.326" id="Fill-17" fill="#E9812D" sketch:type="MSShapeGroup"></path>
        </g>
    </g>
</svg>